<?xml version="1.0" encoding="UTF-8" standalone="no"?>
<!-- Created with Inkscape (http://www.inkscape.org/) -->

<svg
   version="1.1"
   id="svg2"
   width="20"
   height="20"
   viewBox="0 0 20 20"
   sodipodi:docname="abarth.svg"
   inkscape:version="1.3 (0e150ed6c4, 2023-07-21)"
   xmlns:inkscape="http://www.inkscape.org/namespaces/inkscape"
   xmlns:sodipodi="http://sodipodi.sourceforge.net/DTD/sodipodi-0.dtd"
   xmlns="http://www.w3.org/2000/svg"
   xmlns:svg="http://www.w3.org/2000/svg">
  <defs
     id="defs6">
    <clipPath
       clipPathUnits="userSpaceOnUse"
       id="clipPath16">
      <path
         d="M 0,792 H 612 V 0 H 0 Z"
         id="path14" />
    </clipPath>
  </defs>
  <sodipodi:namedview
     id="namedview4"
     pagecolor="#ffffff"
     bordercolor="#000000"
     borderopacity="0.25"
     inkscape:showpageshadow="2"
     inkscape:pageopacity="0.0"
     inkscape:pagecheckerboard="0"
     inkscape:deskcolor="#d1d1d1"
     inkscape:zoom="22.627417"
     inkscape:cx="16.727495"
     inkscape:cy="9.5017474"
     inkscape:window-width="1280"
     inkscape:window-height="730"
     inkscape:window-x="-6"
     inkscape:window-y="953"
     inkscape:window-maximized="1"
     inkscape:current-layer="g12" />
  <g
     id="g8"
     inkscape:groupmode="layer"
     inkscape:label="abarth-seeklogo"
     transform="matrix(1.3333333,0,0,-1.3333333,0,1056)">
    <g
       id="g1"
       transform="matrix(0.03831235,0,0,0.03831235,-4.4305844,769.59626)">
      <g
         id="g10"
         transform="translate(0,-124.75385)">
        <g
           id="g12"
           clip-path="url(#clipPath16)">
          <path
             id="path20"
             style="fill:#231f20;fill-opacity:1;fill-rule:evenodd;stroke:none"
             d="M 310.94429 709.51985 C 310.94429 709.51985 281.81719 709.80415 255.77227 705.16115 C 229.72739 700.51915 213.98994 704.26511 205.60894 708.90811 C 184.20706 700.52811 160.11019 690.32626 160.11019 690.32626 C 160.11019 690.32626 160.23422 676.38142 149.02226 662.4535 C 137.8093 648.52554 130.44042 638.36592 130.44042 638.36592 C 130.44042 638.36592 156.4816 616.05677 153.6486 605.86681 C 150.81664 595.67585 119.24301 495.3105 146.19293 440.5037 C 173.14381 385.69694 214.58464 354.34296 266.89844 343.924 C 294.75432 338.37704 311.5178 318.00118 311.5178 318.00118 C 311.5178 318.00118 328.05288 338.52894 355.90776 344.07694 C 408.22156 354.4959 449.66339 385.88708 476.61327 440.69488 C 503.56419 495.50164 471.99056 595.82879 469.1576 606.01975 C 466.3256 616.20971 492.36578 638.51886 492.36578 638.51886 C 492.36578 638.51886 484.9969 648.67851 473.78394 662.60643 C 462.57098 676.53439 462.69601 690.4792 462.69601 690.4792 C 462.69601 690.4792 438.60018 700.68108 417.19726 709.06104 C 408.8173 704.41908 393.07881 700.67109 367.03393 705.31409 C 340.98801 709.95605 310.94429 709.51985 310.94429 709.51985 z M 297.5623 688.33808 L 315.03535 653.9655 L 315.03535 687.76457 C 315.03535 687.76457 344.30949 687.03667 351.12848 686.31167 C 357.94747 685.58567 358.9665 681.37945 358.9665 681.37945 L 358.81356 685.58522 C 358.81356 685.58522 372.19109 685.27644 389.74507 683.82644 C 407.30005 682.37544 417.38843 680.95887 417.38843 680.95887 L 417.38843 669.22096 L 441.55247 666.8122 L 441.55247 676.56193 L 452.411 674.84139 L 452.411 651.63321 L 441.55247 651.63321 L 441.51424 659.73887 C 441.51424 659.73887 438.03883 660.33619 430.34984 660.77119 C 422.66085 661.20619 417.23549 661.42117 417.23549 661.42117 L 417.23549 651.70967 L 406.14756 651.70967 L 406.10933 673.96201 C 406.10933 673.96201 402.88084 674.48486 395.74785 674.91786 C 388.61585 675.35086 385.08049 675.33844 385.08049 675.33844 L 385.08049 651.78614 L 373.91609 651.78614 L 373.91609 676.6384 L 359.34884 676.6384 L 359.34884 674.15318 C 359.34884 664.46719 353.9059 663.98287 353.1549 663.98287 C 352.4039 663.98287 352.72843 663.33289 353.07843 663.33289 C 353.42943 663.33289 358.46946 663.67086 358.46946 659.73887 L 358.46946 651.55674 L 347.34329 651.55674 L 347.34329 656.22132 C 347.34329 656.22132 348.36011 659.58593 342.90812 659.58593 L 325.62624 659.58593 L 325.62624 651.63321 L 303.22097 651.59497 L 300.27694 657.44481 L 277.75696 657.44481 L 274.62176 651.63321 L 262.65444 651.67144 C 262.65444 651.67144 262.49767 651.92309 262.69267 653.73609 C 259.41568 651.10109 256.6899 651.59497 256.6899 651.59497 L 208.85885 651.5185 L 206.02952 656.18308 L 183.50955 656.18308 L 180.45081 651.48027 L 168.06292 651.48027 L 187.90649 679.35303 L 202.58844 681.22651 L 220.86441 653.50668 L 220.86441 683.82644 C 220.86441 683.82644 248.82237 686.1205 256.76636 686.1205 C 264.71036 686.1205 265.56024 681.96023 265.56024 676.44723 C 265.56024 670.93424 261.16626 669.52683 260.66626 669.52683 C 260.16626 669.52683 260.27549 668.72391 260.70449 668.72391 C 261.13349 668.72391 266.32493 668.85678 266.32493 664.78579 L 266.32493 658.28596 L 282.68918 688.22338 L 297.5623 688.33808 z M 289.49488 678.89422 L 282.19214 665.58871 L 296.18587 665.58871 L 289.49488 678.89422 z M 326.35269 678.47365 L 326.35269 668.99155 C 326.35269 668.99155 338.71345 668.80038 343.94044 668.80038 C 349.16744 668.80038 348.56679 670.90421 348.56679 672.85321 C 348.56679 674.80221 349.1751 678.0913 343.5581 678.0913 C 337.94111 678.0913 326.35269 678.47365 326.35269 678.47365 z M 251.83415 677.7472 C 247.96515 677.7472 231.83764 676.75311 231.83764 676.75311 L 231.83764 672.01206 C 231.83764 672.01206 249.29115 672.20693 251.83415 672.31793 C 254.37714 672.42793 255.70314 677.7472 251.83415 677.7472 z M 194.90336 673.7326 L 187.67708 662.60643 L 201.55611 663.25642 L 194.90336 673.7326 z M 251.49004 664.90049 C 246.51504 664.78949 231.37883 664.1358 231.37883 664.1358 L 231.14942 659.16535 L 251.94885 659.16535 C 255.04485 659.16535 256.46403 665.01049 251.49004 664.90049 z M 144.51062 641.73054 L 250.64889 641.73054 L 251.64298 641.73054 L 371.16323 641.73054 L 372.15732 641.73054 L 478.41028 641.73054 A 1.0001 1.0001 0 0 0 479.2132 641.34819 C 479.98275 640.36297 480.74293 639.37967 481.50726 638.36592 A 1.0001 1.0001 0 0 0 481.39256 637.02772 C 479.40305 635.10909 477.03468 632.78277 474.62509 630.18379 A 1.0001 1.0001 0 0 0 473.89864 629.87792 L 372.15732 629.87792 L 371.16323 629.87792 L 251.64298 629.87792 L 250.64889 629.87792 L 148.75462 629.87792 A 1.0001 1.0001 0 0 0 148.02817 630.18379 C 145.66888 632.7196 143.36308 634.99515 141.41365 636.87479 A 1.0001 1.0001 0 0 0 141.29894 638.21299 C 142.10348 639.28101 142.93513 640.31164 143.74594 641.34819 A 1.0001 1.0001 0 0 0 144.51062 641.73054 z M 145.00767 639.74236 C 144.4786 639.06351 143.9651 638.36785 143.44006 637.67771 C 145.18213 635.99084 147.12018 634.05717 149.1752 631.8661 L 250.64889 631.8661 L 250.64889 639.74236 L 145.00767 639.74236 z M 372.15732 639.74236 L 372.15732 631.8661 L 473.47807 631.8661 C 475.58486 634.11998 477.58268 636.10351 479.36614 637.83064 C 478.88071 638.46817 478.40215 639.11422 477.91324 639.74236 L 372.15732 639.74236 z M 152.15747 627.04859 L 470.4958 627.04859 C 464.0388 619.34259 458.5023 610.02398 460.7843 601.81398 C 463.21226 593.07802 465.78401 583.28362 468.23997 572.87066 L 428.09402 554.63293 L 377.12777 614.16365 C 376.96877 614.34865 376.11004 614.68469 375.86604 614.66069 L 294.61827 606.78444 C 292.79327 606.60744 292.48646 604.78257 294.15946 604.03157 L 345.04924 581.20573 L 319.73817 570.00309 C 318.08917 569.27409 318.29931 567.51523 320.08227 567.25023 L 370.2456 559.79455 C 370.4276 559.76755 371.25263 560.01866 371.39263 560.13866 L 388.98038 575.16472 L 398.08013 555.70348 L 338.51118 540.33332 C 337.82918 540.15732 337.30862 539.34301 337.44062 538.65101 C 337.44062 538.65101 340.43884 522.93696 342.37284 515.634 L 342.1052 515.51929 L 324.40274 535.47757 C 321.84078 538.36157 313.49621 525.69562 311.74721 523.73966 L 294.27416 523.16614 C 293.38916 523.13614 292.77573 522.3608 292.89773 521.48384 L 296.49175 495.86689 L 283.41563 513.68405 C 282.97063 514.29005 282.00422 514.46216 281.38922 514.02816 L 230.84355 478.35561 L 220.86441 498.27565 L 243.57555 501.75496 C 243.75755 501.78296 244.47064 502.24895 244.56964 502.40495 L 271.56302 545.07436 C 272.54302 546.62436 271.2713 548.00001 269.6513 547.13901 L 244.87551 533.98643 L 261.35447 588.20259 C 261.88747 589.95959 260.27568 590.95973 258.94572 589.69373 L 200.90613 534.44524 C 200.72713 534.27624 200.44856 533.38928 200.48556 533.14528 L 212.22347 456.44738 L 159.30727 432.39804 C 157.47727 435.68004 155.70471 439.00992 153.99271 442.49188 C 132.78279 485.62572 149.67198 557.22721 162.0219 601.66105 C 164.3199 609.92801 158.67043 619.31259 152.15747 627.04859 z M 469.99875 565.30028 C 479.10372 524.1834 484.85643 475.30894 468.81349 442.68306 C 442.98355 390.15521 403.72131 360.6259 354.22546 350.76793 C 338.21649 347.57993 323.39028 339.5038 311.44134 328.55383 C 299.41437 339.4098 284.58369 347.42802 268.58075 350.61499 C 224.61487 359.37196 188.74387 383.65564 163.16893 425.78352 L 291.59776 484.20545 L 281.31275 469.98231 L 276.15113 470.09701 C 274.33513 470.14101 273.81521 468.43485 275.34821 467.45885 L 285.78616 460.80609 C 286.26516 460.50109 287.18717 460.59026 287.58317 460.99726 L 303.87095 477.78209 L 306.89146 473.7675 L 291.55953 457.1356 C 291.06953 457.0856 281.75886 456.75416 285.90086 453.96216 L 295.53589 447.46234 C 296.01589 447.13834 296.96213 447.24451 297.37113 447.65351 L 314.00303 464.2854 L 317.02353 460.30904 L 301.92101 443.98302 L 296.91232 443.98302 C 290.73435 443.98302 304.84057 431.59288 307.23557 434.00388 L 324.05864 450.94165 L 327.38502 446.58295 L 313.50598 430.33339 L 307.50321 430.29516 C 305.74021 430.27816 305.25229 428.62276 306.70029 427.61876 L 316.10591 421.11894 C 316.59191 420.78294 317.52316 420.85388 317.94116 421.27188 L 334.19071 437.52143 C 334.44071 437.18943 334.78504 436.62547 335.22304 436.22147 C 335.11004 436.04647 335.03986 435.86095 335.03186 435.64795 L 334.15248 411.25451 C 334.14748 411.13051 334.24465 410.93023 334.34365 410.71923 C 333.77465 410.79623 333.28519 410.70288 332.96722 410.33688 L 317.71175 392.7109 C 317.55475 392.5289 317.31064 391.64593 317.36764 391.41093 L 317.52058 390.91389 C 317.20658 391.10889 316.83379 391.16459 316.41179 391.02859 L 294.73297 384.06996 C 294.56097 384.01496 293.92558 383.43204 293.85358 383.26704 L 293.54771 382.50235 C 293.52771 383.10435 293.34296 383.57955 292.93596 383.84055 L 266.17199 401.04596 C 265.68399 401.35896 264.47178 401.25303 263.03678 400.89303 L 264.45145 401.42831 C 264.93445 401.61231 265.4613 402.44368 265.4073 402.95768 L 260.47509 449.67992 C 260.27609 451.56492 258.23075 451.75056 257.64575 449.94756 L 239.63742 394.54614 C 239.17042 393.10914 240.13716 392.21213 241.54913 392.74913 L 258.60161 399.21072 C 256.15361 397.94272 254.41774 396.32242 255.84874 395.08142 C 266.53871 385.80445 296.72505 355.67638 293.93005 365.52635 L 293.77711 366.1381 C 294.53511 365.0141 295.33193 364.29556 296.03293 364.41756 L 329.29673 370.22916 C 330.75073 370.48216 331.09718 371.70239 330.02318 372.71439 L 331.20844 372.67615 C 331.76644 372.21415 332.71062 372.25486 333.19662 372.79086 L 361.6429 404.14294 C 362.3989 404.97594 362.33613 405.88729 361.68113 406.32229 C 362.29813 406.44429 362.89063 407.07672 362.90463 407.69872 L 363.74578 444.25066 C 363.77678 445.56366 362.88807 446.19556 361.83407 445.70356 L 362.9811 446.46825 C 364.4181 447.41825 362.80722 450.88123 362.67522 451.36223 L 385.73047 452.27985 C 388.73547 452.40085 387.91129 463.95339 387.98629 464.93539 C 388.11829 466.64736 386.63083 467.30318 385.46283 466.04418 L 382.09822 462.41193 L 359.88412 461.57077 L 358.35475 467.30591 L 382.59527 468.98822 C 385.59024 469.19822 384.3453 480.52699 384.39227 481.68199 C 384.58027 486.35196 378.97009 479.90729 378.16009 479.12029 L 355.18131 478.85265 L 353.80488 483.89957 L 378.5042 485.39071 C 381.5022 485.57171 381.02366 498.00824 381.02766 498.04624 C 381.50466 502.79024 375.44778 496.40095 374.68078 495.71395 L 350.7079 495.29338 L 349.36971 500.2256 L 374.75725 501.60203 C 375.28522 501.63103 375.99544 502.26929 376.09544 502.78729 L 378.46597 515.06048 C 378.81397 516.86448 377.13051 517.68598 375.94251 516.28398 L 372.96024 512.72819 C 364.85424 512.67019 358.95786 512.74943 354.45486 512.76643 L 469.99875 565.30028 z " />
        </g>
      </g>
    </g>
  </g>
</svg>
