<?xml version="1.0" encoding="UTF-8" standalone="no"?>
<svg
   enable-background="new 0 0 271 274"
   viewBox="0 0 271 274"
   version="1.1"
   id="svg6"
   sodipodi:docname="bmw.svg"
   inkscape:version="1.3 (0e150ed6c4, 2023-07-21)"
   xmlns:inkscape="http://www.inkscape.org/namespaces/inkscape"
   xmlns:sodipodi="http://sodipodi.sourceforge.net/DTD/sodipodi-0.dtd"
   xmlns="http://www.w3.org/2000/svg"
   xmlns:svg="http://www.w3.org/2000/svg">
  <defs
     id="defs6" />
  <sodipodi:namedview
     id="namedview6"
     pagecolor="#ffffff"
     bordercolor="#000000"
     borderopacity="0.25"
     inkscape:showpageshadow="2"
     inkscape:pageopacity="0.0"
     inkscape:pagecheckerboard="0"
     inkscape:deskcolor="#d1d1d1"
     inkscape:zoom="0.90540979"
     inkscape:cx="144.13363"
     inkscape:cy="203.2229"
     inkscape:window-width="1280"
     inkscape:window-height="730"
     inkscape:window-x="-6"
     inkscape:window-y="-6"
     inkscape:window-maximized="1"
     inkscape:current-layer="svg6" />
  <path
     d="M 135.5,7.5597496 C 64.009987,7.5597496 6.0597496,65.509987 6.0597496,137 6.0597496,208.49001 64.009987,266.44025 135.5,266.44025 206.99001,266.44025 264.94025,208.49001 264.94025,137 264.94025,65.509987 206.99001,7.5597496 135.5,7.5597496 Z M 256.49143,137 c 0,66.83233 -54.1591,120.99143 -120.99143,120.99143 C 68.66767,257.99143 14.508569,203.83233 14.508569,137 14.508569,70.16767 68.66767,16.008569 135.5,16.008569 202.33233,16.008569 256.49143,70.16767 256.49143,137 Z"
     id="path1"
     style="stroke-width:1.08318" />
  <g
     transform="matrix(1.083182,0,0,1.083182,-3.3585342,-8.02886)"
     id="g4">
    <path
       d="m 186.1,83.2 c 1.6,1.7 4,4.6 5.3,6.3 l 24.2,-15.4 c -1.2,-1.6 -3.1,-4 -4.6,-5.7 l -15.3,10.1 -1,0.9 0.8,-1.1 6.8,-13.5 -4.8,-4.8 -13.5,6.8 -1.1,0.8 0.9,-1 10.1,-15.3 c -1.8,-1.5 -3.5,-2.9 -5.7,-4.6 l -15.4,24.2 c 1.9,1.5 4.5,3.7 6.1,5.2 l 14.5,-7.5 0.9,-0.7 -0.7,0.9 z"
       id="path2" />
    <path
       d="m 131.2,52.6 6.6,-14.8 0.4,-1.3 -0.1,1.4 0.7,19.8 c 2.3,0.2 4.7,0.5 7.1,0.9 l -1.1,-29.3 c -3.3,-0.4 -6.6,-0.6 -9.9,-0.8 l -6.5,16.2 -0.2,1.2 -0.2,-1.2 -6.5,-16.2 c -3.3,0.1 -6.6,0.4 -9.9,0.8 l -1.1,29.3 c 2.4,-0.4 4.8,-0.7 7.1,-0.9 l 0.7,-19.8 -0.1,-1.4 0.4,1.3 6.6,14.8 z"
       id="path3" />
    <path
       d="m 77.7,75.9 c 3.8,-4 6,-8.7 2.2,-13.1 -2.1,-2.4 -5.6,-2.9 -8.5,-1.7 l -0.3,0.1 0.1,-0.3 c 0.4,-1.1 0.7,-4.8 -2.4,-7.3 -1.5,-1.2 -3.4,-1.7 -5.3,-1.5 -3.6,0.4 -6.3,2.8 -13.9,11.2 -2.3,2.5 -5.6,6.5 -7.6,9.1 L 62.7,92 c 6.9,-7.6 9.6,-10.4 15,-16.1 z M 50.8,71.1 C 55,66 59.4,61.4 61.4,59.6 62,59 62.7,58.4 63.6,58.2 c 1.4,-0.4 2.8,0.6 3.1,2 0.3,1.4 -0.6,2.7 -1.5,3.8 -2.3,2.5 -10.4,11 -10.4,11 z m 8.1,7.7 c 0,0 7.9,-8.3 10.4,-11 1,-1.1 1.7,-1.7 2.4,-2 0.9,-0.4 1.9,-0.5 2.8,0.1 0.9,0.6 1.3,1.6 1.1,2.6 -0.3,1.2 -1.2,2.3 -2,3.2 -1.1,1.2 -10.4,11.1 -10.4,11.1 z"
       id="path4" />
  </g>
  <path
     d="M 135.5,60.310714 V 137 H 58.810714 c 0,-42.460735 34.228551,-76.689286 76.689286,-76.689286 z"
     id="path5"
     style="stroke-width:1.08318" />
  <path
     d="m 212.18929,137 c 0,42.46073 -34.33687,76.68929 -76.68929,76.68929 V 137 Z"
     id="path6"
     style="stroke-width:1.08318" />
</svg>
