<?xml version="1.0" encoding="UTF-8" standalone="no"?>
<!-- Created with Inkscape (http://www.inkscape.org/) -->

<svg
   width="20"
   height="20"
   viewBox="0 0 5.2916664 5.2916666"
   version="1.1"
   id="svg1"
   inkscape:version="1.3 (0e150ed6c4, 2023-07-21)"
   sodipodi:docname="KupujemAutoDefoult.svg"
   xml:space="preserve"
   xmlns:inkscape="http://www.inkscape.org/namespaces/inkscape"
   xmlns:sodipodi="http://sodipodi.sourceforge.net/DTD/sodipodi-0.dtd"
   xmlns="http://www.w3.org/2000/svg"
   xmlns:svg="http://www.w3.org/2000/svg"><sodipodi:namedview
     id="namedview1"
     pagecolor="#ffffff"
     bordercolor="#000000"
     borderopacity="0.25"
     inkscape:showpageshadow="2"
     inkscape:pageopacity="0.0"
     inkscape:pagecheckerboard="0"
     inkscape:deskcolor="#d1d1d1"
     inkscape:document-units="px"
     inkscape:zoom="11.313708"
     inkscape:cx="-0.48613591"
     inkscape:cy="20.152543"
     inkscape:window-width="1662"
     inkscape:window-height="882"
     inkscape:window-x="91"
     inkscape:window-y="0"
     inkscape:window-maximized="0"
     inkscape:current-layer="layer1"
     showguides="false" /><defs
     id="defs1" /><g
     inkscape:label="Layer 1"
     inkscape:groupmode="layer"
     id="layer1"
     transform="translate(4524.4288,-2195.5188)"><path
       id="path209"
       style="fill:#000000;stroke-width:0.43224;stroke-linecap:round;stroke-linejoin:round;paint-order:markers fill stroke"
       d="m -4523.1233,2195.7579 c -0.1079,0 -0.2031,0.068 -0.24,0.1669 l -0.4585,1.2344 c -0.062,0.1662 0.062,0.3454 0.2404,0.3454 h 3.5977 c 0.1785,0 0.3022,-0.1792 0.2403,-0.3454 l -0.4584,-1.2344 c -0.037,-0.099 -0.1321,-0.1669 -0.24,-0.1669 h -1.0259 -0.6297 z m 0.013,0.2749 h 1.0119 0.6308 1.012 l 0.4446,1.1971 h -3.5439 z m -0.9573,1.7476 c -0.1184,0 -0.2134,0.097 -0.2134,0.213 v 0.7793 c -0.035,0.01 -0.1478,0.071 -0.1478,0.1815 v 0.4472 c 6e-4,0.093 0.061,0.1693 0.1478,0.1693 v 0.7158 c 0,0.1556 0.1298,0.2848 0.2849,0.2848 h 0.4157 c 0.1554,0 0.2848,-0.1295 0.2848,-0.2848 v -0.2472 h 3.0252 v 0.2472 c 0,0.1553 0.1295,0.2848 0.2849,0.2848 h 0.4156 c 0.1552,0 0.2849,-0.1292 0.2849,-0.2848 v -0.7158 c 0.087,0 0.1472,-0.076 0.1479,-0.1693 v -0.4472 c 0,-0.1101 -0.1128,-0.1747 -0.1478,-0.1815 v -0.7793 c 0,-0.1159 -0.095,-0.213 -0.2134,-0.213 z m 0.061,0.2743 v 0 h 0.5103 c -0.04,0.036 -0.065,0.1069 -0.065,0.1736 v 0.3605 c 0,0.077 0.028,0.1363 0.066,0.1751 h -0.5117 c 0,-0.2364 0,-0.4728 0,-0.7092 z m 3.9365,0 h 0.5102 v 0 c 0,0.2364 0,0.4728 0,0.7092 h -0.5117 c 0.038,-0.039 0.067,-0.098 0.067,-0.1751 v -0.3605 c 0,-0.067 -0.026,-0.1373 -0.065,-0.1736 z m -2.6576,0 h 1.8891 c -0.056,0.058 -0.065,0.1314 -0.065,0.1736 v 0.3605 c 0,0.1 0.046,0.1547 0.065,0.1728 7e-4,6e-4 0,0 0,0 h -1.8914 c 7e-4,-6e-4 0,0 0,0 0.018,-0.018 0.065,-0.073 0.065,-0.1728 v -0.3605 c 0,-0.042 -0.01,-0.1157 -0.065,-0.1736 z m -1.4266,0.9834 h 4.7422 v 0.276 c -0.1473,0 -0.1479,0.1364 -0.1479,0.1375 v 0.8345 c 0,0.01 0,0.01 -0.01,0.01 h -0.4157 c -0.01,0 -0.01,0 -0.01,-0.01 v -0.385 c 0,-0.075 -0.061,-0.1374 -0.1375,-0.1374 h -3.3006 c -0.076,0 -0.1374,0.062 -0.1374,0.1374 v 0.385 c 0,0.01 0,0.01 -0.01,0.01 h -0.4157 c -0.01,0 -0.01,0 -0.01,-0.01 v -0.8345 c 0,0 -5e-4,-0.1375 -0.1479,-0.1375 z"
       sodipodi:nodetypes="cccsscccccccccccccsscsccssssccssssccscssscccssccccccccsscccssscccssccccsssssssssssssscc" /></g></svg>
