<?xml version="1.0" encoding="UTF-8" standalone="no"?>
<svg
   height="20"
   viewBox="0 0 100 100"
   width="20"
   version="1.1"
   id="svg1"
   sodipodi:docname="seat.svg"
   inkscape:version="1.3 (0e150ed6c4, 2023-07-21)"
   xmlns:inkscape="http://www.inkscape.org/namespaces/inkscape"
   xmlns:sodipodi="http://sodipodi.sourceforge.net/DTD/sodipodi-0.dtd"
   xmlns="http://www.w3.org/2000/svg"
   xmlns:svg="http://www.w3.org/2000/svg">
  <defs
     id="defs1" />
  <sodipodi:namedview
     id="namedview1"
     pagecolor="#ffffff"
     bordercolor="#000000"
     borderopacity="0.25"
     inkscape:showpageshadow="2"
     inkscape:pageopacity="0.0"
     inkscape:pagecheckerboard="0"
     inkscape:deskcolor="#d1d1d1"
     inkscape:zoom="17.35"
     inkscape:cx="10"
     inkscape:cy="9.9711816"
     inkscape:window-width="1280"
     inkscape:window-height="730"
     inkscape:window-x="-6"
     inkscape:window-y="-6"
     inkscape:window-maximized="1"
     inkscape:current-layer="svg1" />
  <path
     d="m33.6147151 6.259177c18.6495945-.6525925 37.3178339-.00462832 55.9347998 1.18253463 1.9600486.16893352 3.945734.15504858 5.8754846.5646545 1.0441163.24992905 2.1721347.64565003 2.7827563 1.58751225.5570174 1.02517192.5686705 2.22159152.7131687 3.35090052.4428172 5.5470362.5733317 11.117214.9905121 16.6642502-.8063934.0971947-1.6127868-.0254557-2.4191801-.0509114-14.3589293-.7382164-28.7295116-1.3514682-43.111747-1.3699814-7.4486509.0208274-14.9066242-.0509115-22.3482832.3077829-1.8038973.263814-3.8455174.8631809-4.8873031 2.4599498 5.6307699.9927737 11.2498866 2.0642287 16.8783259 3.0755157 18.6542557 3.4666084 37.3224952 6.8568495 55.9767509 10.3188296-.0163143 3.5128915-.0093225 7.0257831-.0023306 10.5386746-10.4901056-1.7240476-20.9615663-3.5846304-31.44468-5.3642178-22.5533774-3.8600152-45.099763-7.773256-67.66013226-11.5962447.04428172-3.8993559.21208612-7.7963976.2936577-11.6980676.14216762-3.0894007.05360419-6.2204562.75745042-9.2543171.47311518-2.1405959 1.34942704-4.2927627 2.98318932-5.822421 2.82004616-2.772361 6.89862532-3.55223218 10.69519982-3.94332485 5.982693-.55076955 11.9910228-.73127386 17.9923607-.95111885zm-33.6147151 37.0741563c32.301035 5.9088805 64.5904208 11.9170892 96.8867962 17.8606191.7059444.1709371 1.4608157.1847969 2.1388019.4412026l.0815448.1847969c-.1770686 5.2528515-.279582 10.5103229-.4706297 15.7631744-.123482 3.2408754-.4682997 6.6318982-2.1504512 9.4870101-1.8033036 2.9521303-5.1629467 4.5852728-8.4876421 5.2020324-4.8996737.9124346-9.9041907.9724936-14.8667704 1.242759-21.3530717.9609439-42.7504105.4296528-64.0685345-1.0256227-1.70312007-.117808-3.43652818-.1478375-5.09072141-.6167596-.85738466-.2679555-1.74272751-.6999182-2.22733623-1.485305-.51955646-1.0302426-.55217436-2.2060128-.68031609-3.3286539-.45665052-6.1283267-.69895488-12.2682033-1.02280398-18.4034599 10.99689021.6929883 22.01241911 1.0810618 33.03027801 1.3236077 10.6380933.1709371 21.2761866.1686272 31.91428.2725754 2.2949018.0947084 4.7761917-.3395643 6.5165893-1.9380573.2539536-.2887452.666337-.5567007.6243997-.9886634-4.7948305-.713778-9.5617028-1.600803-14.3472139-2.3815699-19.2538772-3.263975-38.5170738-6.4979205-57.76862115-9.7803752-.0232985-3.9431035.0046597-7.8862071-.01164925-11.8293107z"
     fill="#19191b"
     id="path1"
     style="fill:#000000" />
</svg>
