<?xml version="1.0" encoding="UTF-8" standalone="no"?>
<svg
   height="20"
   viewBox="0 0 320 320"
   width="20"
   version="1.1"
   id="svg2"
   sodipodi:docname="smart.svg"
   inkscape:version="1.3 (0e150ed6c4, 2023-07-21)"
   xmlns:inkscape="http://www.inkscape.org/namespaces/inkscape"
   xmlns:sodipodi="http://sodipodi.sourceforge.net/DTD/sodipodi-0.dtd"
   xmlns="http://www.w3.org/2000/svg"
   xmlns:svg="http://www.w3.org/2000/svg">
  <defs
     id="defs2" />
  <sodipodi:namedview
     id="namedview2"
     pagecolor="#ffffff"
     bordercolor="#000000"
     borderopacity="0.25"
     inkscape:showpageshadow="2"
     inkscape:pageopacity="0.0"
     inkscape:pagecheckerboard="0"
     inkscape:deskcolor="#d1d1d1"
     inkscape:zoom="17.35"
     inkscape:cx="10"
     inkscape:cy="9.9711816"
     inkscape:window-width="1280"
     inkscape:window-height="730"
     inkscape:window-x="-6"
     inkscape:window-y="-6"
     inkscape:window-maximized="1"
     inkscape:current-layer="svg2" />
  <g
     id="g2">
    <path
       d="m226.5 36.7c32.8 21.2 80 87.5 92.6 124-12.7 36.7-59.9 102.7-92.6 124z"
       id="path1" />
    <path
       d="m156.4 83.8c17.1 0 39 6.8 56.1 19.1v-74.7c-17.1-10.6-37.9-16.9-62.2-16.9-82.6 0-149.4 66.9-149.4 149.4 0 82.7 66.8 149.3 149.4 149.3 24.4 0 45.2-6 62.2-16.7v-74.8c-17.1 12.3-39 19.3-56.1 19.3-46.5 0-80.6-34-80.6-77-.1-43.3 34.1-77 80.6-77z"
       id="path2" />
  </g>
</svg>
