<?xml version="1.0" encoding="UTF-8"?>
<!DOCTYPE svg PUBLIC "-//W3C//DTD SVG 1.1//EN" "http://www.w3.org/Graphics/SVG/1.1/DTD/svg11.dtd">
<!-- Creator: CorelDRAW 2019 (64-Bit) -->
<svg xmlns="http://www.w3.org/2000/svg" xml:space="preserve" width="177.671mm" height="157.057mm" version="1.1" style="shape-rendering:geometricPrecision; text-rendering:geometricPrecision; image-rendering:optimizeQuality; fill-rule:evenodd; clip-rule:evenodd"
viewBox="0 0 177.672 157.0586"
 xmlns:xlink="http://www.w3.org/1999/xlink"
 xmlns:xodm="http://www.corel.com/coreldraw/odm/2003">
 <defs>
  <style type="text/css">
   <![CDATA[
    .fil0 {fill:black}
   ]]>
  </style>
 </defs>
 <g id="Layer_x0020_1">
  <metadata id="CorelCorpID_0Corel-Layer"/>
  <path class="fil0" d="M129.128 15.317l-20.0329 0c-0.4547,-0.005 -0.8916,0.1734 -1.2131,0.4954 -0.3216,0.3206 -0.5,0.7586 -0.4954,1.2128l0 2.2573c0,0.9571 0.7512,1.7095 1.7085,1.7095l5.0599 0c1.2981,0 1.5043,0.6152 1.5043,1.3664l0 8.9568c-4.0344,2.7352 -9.9139,1.6409 -11.5556,0l0 -22.3572c0,-1.3676 1.2319,-2.8724 3.0085,-2.8724l20.5132 0c2.1874,0 1.8443,-2.0502 1.571,-3.0759l-1.093 -3.0084 -29.8109 0c-6.9746,0 -8.7514,6.3589 -8.7514,8.9568l0 22.3572c0,6.0171 4.854,7.7266 7.9317,7.7266l15.4514 0c2.0513,0 4.4445,-1.5036 5.7444,-2.1874 1.3665,1.7082 2.53,2.1874 4.7853,2.1874l7.2474 0 0 -22.0166c-0.0014,-1.3676 -0.8898,-1.7082 -1.5735,-1.7082zm26.8019 17.7765l0 0 3.0758 0c1.9839,0 3.6248,-1.6409 3.6248,-3.6237l0 -20.1024c0,-1.9827 -1.6421,-3.6224 -3.6248,-3.6224l-6.0844 0c-0.9634,-0.0062 -1.888,0.3744 -2.568,1.0544 -0.6801,0.6813 -1.0606,1.606 -1.0545,2.568l0 20.1024c-0.0061,0.9621 0.3744,1.8867 1.0545,2.5668 0.68,0.6813 1.6046,1.0606 2.568,1.0556l3.0085 0 0 0.0013zm0 -33.0922l0 0 13.4702 0c2.1948,-0.0038 4.3011,0.8659 5.8535,2.4182 1.5522,1.5523 2.4232,3.6598 2.4182,5.8547l0 22.4945c0.005,2.1949 -0.866,4.3012 -2.4182,5.8535 -1.5524,1.5522 -3.6587,2.4232 -5.8535,2.4182l-26.3926 0c-4.5109,0 -8.2732,-3.6922 -8.2732,-8.2718l0 -22.4945c0,-4.5807 3.7622,-8.273 8.2732,-8.273l12.9224 0zm-72.337 0l0 0 -2.5986 0c-1.0256,0 -1.9826,0.957 -1.9826,1.9827l0 29.3312c-2.2567,1.7782 -14.6316,3.0771 -20.0336,0l0 -29.6044c0.1376,-0.8897 -0.3416,-1.7095 -1.5033,-1.7095l-19.8957 0c-1.2991,0 -1.9146,0.4779 -2.6665,1.3676 -0.7522,0.8185 -9.2982,13.6723 -9.2982,13.6723l-8.8881 -15.0412 -15.5203 0c-1.2313,0 -1.5046,1.3676 -0.8891,2.5306l12.717 21.1942 0 14.2214c0,0.8198 0.4103,1.0943 1.0942,1.0943l12.4435 0c0.6837,0 1.0253,-0.5478 1.0253,-1.2316l0 -13.6049 15.0419 -22.1513c0.3421,-0.3419 1.2984,-0.4792 1.2984,0.2732l0 29.9465c0,1.7769 1.6419,6.7682 8.2736,6.7682l23.7928 0c3.6925,0 9.5731,-1.9828 9.5731,-7.7265l0 -29.33c-0.0022,-1.0943 -0.8893,-1.9815 -1.9838,-1.9827zm5.3501 157.0573l0 0 -0.2145 0 0 -0.002c-24.4406,-0.074 -45.6241,-20.8301 -45.2214,-47.8414 0.2723,-29.6111 20.4066,-50.3476 44.5035,-50.1189 0.5504,0.0111 1.1008,0.0111 1.6513,0 24.096,-0.2287 44.2301,20.5078 44.5021,50.1189 0.4032,27.0113 -20.7809,47.7674 -45.2217,47.8414l0 0.002 0.0007 0zm0 -90.3861l0 0 -0.2145 0c-10.1281,-0.0236 -20.3686,3.9012 -26.5946,11.2613 10.7685,7.8568 24.2347,15.7484 25.5159,29.8348l0 38.8976c0.0046,0.7163 0.5781,1.1057 1.1868,1.1632 0.609,-0.0575 1.1825,-0.4469 1.1864,-1.1632l0 -38.8976c1.2821,-14.0852 14.7474,-21.978 25.5165,-29.8348 -6.2279,-7.3601 -16.4683,-11.2849 -26.5965,-11.2613zm12.2224 42.4019l0 0 0 36.9481c-0.076,2.0332 2.3628,0.4528 4.7776,-0.8755 17.7168,-10.1294 26.9606,-31.0725 17.8193,-55.1088 -1.5486,-4.3049 -8.1752,1.0534 -10.7203,2.5963 -5.6238,4.6915 -11.3904,8.4771 -11.8766,16.4398zm-24.6582 0l0 0c-0.4871,-7.9628 -6.2545,-11.7483 -11.8765,-16.4398 -2.544,-1.5429 -9.1731,-6.9013 -10.7218,-2.5963 -9.1398,24.0363 0.1035,44.9794 17.8186,55.1088 2.4152,1.3275 4.8547,3.1832 4.7797,1.1479l0 -37.2205z"/>
 </g>
</svg>
