<?xml version="1.0" encoding="UTF-8" standalone="no"?>
<!-- Creator: CorelDRAW 2019 (64-Bit) -->

<svg
   xml:space="preserve"
   width="20"
   height="20"
   version="1.1"
   style="clip-rule:evenodd;fill-rule:evenodd;image-rendering:optimizeQuality;shape-rendering:geometricPrecision;text-rendering:geometricPrecision"
   viewBox="0 0 5.2916964 5.2917203"
   id="svg1"
   sodipodi:docname="yugo.svg"
   inkscape:version="1.3 (0e150ed6c4, 2023-07-21)"
   xmlns:inkscape="http://www.inkscape.org/namespaces/inkscape"
   xmlns:sodipodi="http://sodipodi.sourceforge.net/DTD/sodipodi-0.dtd"
   xmlns="http://www.w3.org/2000/svg"
   xmlns:svg="http://www.w3.org/2000/svg"><sodipodi:namedview
   id="namedview1"
   pagecolor="#ffffff"
   bordercolor="#000000"
   borderopacity="0.25"
   inkscape:showpageshadow="2"
   inkscape:pageopacity="0.0"
   inkscape:pagecheckerboard="0"
   inkscape:deskcolor="#d1d1d1"
   inkscape:document-units="mm"
   inkscape:zoom="5.8462904"
   inkscape:cx="2.9933511"
   inkscape:cy="10.433967"
   inkscape:window-width="1280"
   inkscape:window-height="730"
   inkscape:window-x="-6"
   inkscape:window-y="-6"
   inkscape:window-maximized="1"
   inkscape:current-layer="Layer_x0020_1" />&#10; <defs
   id="defs1">&#10;  <style
   type="text/css"
   id="style1">&#10;   <![CDATA[
    .fil0 {fill:black}
   ]]>&#10;  </style>&#10; </defs>&#10; <g
   id="Layer_x0020_1"
   inkscape:label="Layer 1"
   inkscape:groupmode="layer">&#10;  <metadata
   id="CorelCorpID_0Corel-Layer" />&#10;  <path
   class="fil0"
   d="M 3.8458946,0.76316487 H 3.249241 c -0.013543,-1.4892e-4 -0.026555,0.005164 -0.036131,0.0147548 -0.00958,0.009549 -0.014892,0.0225939 -0.014755,0.0361217 v 0.0672307 c 0,0.028506 0.022374,0.0509152 0.050885,0.0509152 h 0.1507024 c 0.038662,0 0.044804,0.0183229 0.044804,0.0406964 V 1.2396502 c -0.1201593,0.081464 -0.2952725,0.048872 -0.3441683,0 V 0.57377041 c 0,-0.0407322 0.036691,-0.0855507 0.089604,-0.0855507 h 0.6109587 c 0.065149,0 0.05493,-0.0610625 0.04679,-0.0916116 L 3.8153782,0.30700687 H 2.9274997 c -0.2077293,0 -0.2606489,0.18939148 -0.2606489,0.26676652 V 1.2396532 c 0,0.1792114 0.14457,0.2301266 0.2362352,0.2301266 h 0.4601997 c 0.061095,0 0.1323736,-0.044783 0.1710894,-0.065149 0.040699,0.050876 0.075353,0.065149 0.1425238,0.065149 H 3.8927532 V 0.81404434 c -4.17e-5,-0.0407322 -0.026502,-0.0508765 -0.046865,-0.0508765 z M 4.6441539,1.2926146 v 0 h 0.091609 c 0.059088,0 0.1079599,-0.048872 0.1079599,-0.1079272 V 0.58596385 c 0,-0.0590521 -0.048908,-0.10788842 -0.1079599,-0.10788842 H 4.5545467 c -0.028694,-1.8466e-4 -0.056232,0.011151 -0.076484,0.0314039 -0.020256,0.0202916 -0.031589,0.0478326 -0.031407,0.0764845 V 1.1846874 c -1.816e-4,0.028655 0.011151,0.056193 0.031407,0.076449 0.020253,0.020292 0.047791,0.031589 0.076484,0.03144 h 0.089604 v 3.87e-5 z m 0,-0.98560773 v 0 h 0.4011922 c 0.065369,-1.1318e-4 0.1281026,0.0257897 0.1743388,0.0720229 0.04623,0.0462332 0.072172,0.10900233 0.072023,0.17437454 V 1.2233734 c 1.489e-4,0.065372 -0.025793,0.1281056 -0.072023,0.1743388 -0.046236,0.04623 -0.1089695,0.072172 -0.1743388,0.072023 H 4.2592772 c -0.1343512,0 -0.2464064,-0.1099673 -0.2464064,-0.2463646 V 0.55340135 c 0,-0.13643013 0.1120522,-0.24640044 0.2464064,-0.24640044 h 0.3848767 z m -2.1544625,0 v 0 h -0.077396 c -0.030546,0 -0.059049,0.028503 -0.059049,0.0590521 V 1.2396502 c -0.067213,0.052961 -0.435783,0.091647 -0.5966744,0 V 0.35792208 c 0.0041,-0.0264985 -0.010174,-0.0509152 -0.044774,-0.0509152 H 1.1192309 c -0.038692,0 -0.057024,0.0142336 -0.079418,0.0407322 -0.022404,0.0243779 -0.27693491,0.40721149 -0.27693491,0.40721149 L 0.49815762,0.30696815 H 0.03590588 c -0.0366726523,0 -0.04481254,0.0407322 -0.02648068,0.0753706 L 0.38818433,1.0135801 v 0.4235657 c 0,0.024417 0.0122202,0.032592 0.0325893,0.032592 h 0.3706133 c 0.0203631,0 0.0305372,-0.016316 0.0305372,-0.036682 V 1.0278525 L 1.2699274,0.36810512 c 0.010189,-0.010183 0.038671,-0.0142723 0.038671,0.008137 V 1.2681592 c 0,0.052923 0.048902,0.2015819 0.2464183,0.2015819 H 2.263654 c 0.1099763,0 0.2851222,-0.059055 0.2851222,-0.2301236 V 0.36606196 c -6.54e-5,-0.0325923 -0.026486,-0.0590164 -0.059085,-0.0590521 z M 2.6490371,4.9847521 v 0 h -0.00639 v -5.96e-5 C 1.9147174,4.9824885 1.2837947,4.3642954 1.2957886,3.5597994 1.3038987,2.6778716 1.9035723,2.0602622 2.6212668,2.0670737 c 0.016393,3.307e-4 0.032786,3.307e-4 0.049182,0 0.7176677,-0.00681 1.3173354,0.6107979 1.3254366,1.4927257 0.012009,0.804496 -0.6189318,1.4226891 -1.3468689,1.4248931 v 5.96e-5 z m 0,-2.6920312 v 0 h -0.00639 C 2.3409964,2.292018 2.0359966,2.408913 1.8505633,2.628124 2.171289,2.8621284 2.572362,3.0971693 2.6105209,3.5167142 v 1.1585139 c 1.37e-4,0.021334 0.017218,0.032932 0.035347,0.034644 0.018138,-0.00171 0.035219,-0.01331 0.035335,-0.034644 V 3.5167142 C 2.7193892,3.0972051 3.1204355,2.8621284 3.4411789,2.628124 3.2556891,2.408913 2.9506923,2.292018 2.6490371,2.2927209 Z m 0.3640282,1.2628849 v 0 1.1004506 c -0.00226,0.060556 0.070373,0.013486 0.1422945,-0.026076 C 3.6830314,4.3282899 3.9583458,3.7045273 3.6860842,2.9886376 3.6399612,2.8604219 3.4425966,3.0200118 3.3667942,3.0659651 3.1992967,3.2056952 3.0275461,3.3184442 3.0130653,3.5556029 Z m -0.7344121,0 v 0 C 2.2641455,3.3184442 2.0923711,3.2056982 1.9249272,3.0659679 1.8491575,3.0200148 1.6517185,2.8604219 1.6055925,2.9886406 c -0.2722169,0.7158897 0.00308,1.3396523 0.5307036,1.6413431 0.071934,0.039538 0.1445909,0.094807 0.1423571,0.034189 v -1.108564 z"
   id="path1"
   style="stroke-width:0.0297837" />&#10; </g>&#10;</svg>
