<?xml version="1.0" encoding="UTF-8" standalone="no"?>
<!-- Created with Inkscape (http://www.inkscape.org/) -->

<svg
   width="504.10742"
   height="66.564453"
   viewBox="0 0 133.37842 17.611845"
   version="1.1"
   id="svg1"
   inkscape:version="1.3 (0e150ed6c4, 2023-07-21)"
   sodipodi:docname="kupujem_auto_logo.svg"
   xml:space="preserve"
   xmlns:inkscape="http://www.inkscape.org/namespaces/inkscape"
   xmlns:sodipodi="http://sodipodi.sourceforge.net/DTD/sodipodi-0.dtd"
   xmlns="http://www.w3.org/2000/svg"
   xmlns:svg="http://www.w3.org/2000/svg"><sodipodi:namedview
     id="namedview1"
     pagecolor="#ffffff"
     bordercolor="#000000"
     borderopacity="0.25"
     inkscape:showpageshadow="2"
     inkscape:pageopacity="0.0"
     inkscape:pagecheckerboard="0"
     inkscape:deskcolor="#d1d1d1"
     inkscape:document-units="px"
     inkscape:zoom="0.90509668"
     inkscape:cx="249.69708"
     inkscape:cy="-4.9718446"
     inkscape:window-width="1657"
     inkscape:window-height="881"
     inkscape:window-x="91"
     inkscape:window-y="0"
     inkscape:window-maximized="0"
     inkscape:current-layer="g1" /><defs
     id="defs1" /><g
     inkscape:label="Layer 1"
     inkscape:groupmode="layer"
     id="layer1"
     transform="translate(3865.1946,-2418.7629)"><g
       id="g1"
       transform="matrix(0.19200956,0,0,0.19200956,-3097.8483,1996.5169)"
       style="fill:#50514f;fill-opacity:1"><g
         id="g2"><path
           id="path1"
           style="fill:#50514f;fill-opacity:1;stroke-width:0.210583;stroke-linecap:round;stroke-linejoin:round"
           d="m -3975.1696,2199.0894 a 2.2070583,2.2070583 0 0 0 -0.8691,0.1787 2.2070583,2.2070583 0 0 0 -0.7287,0.5069 2.2070583,2.2070583 0 0 0 -0.4698,0.7527 l -8.5216,22.9428 a 2.2070583,2.2070583 0 0 0 -0.1208,1.0459 2.2070583,2.2070583 0 0 0 0.3776,0.9825 2.2070583,2.2070583 0 0 0 0.7898,0.6964 2.2070583,2.2070583 0 0 0 1.0224,0.2508 h 39.6184 39.6186 a 2.2070583,2.2070583 0 0 0 0.5264,-0.064 2.2070583,2.2070583 0 0 0 0.4959,-0.1871 2.2070583,2.2070583 0 0 0 0.437,-0.3002 2.2070583,2.2070583 0 0 0 0.3529,-0.3961 2.2070583,2.2070583 0 0 0 0.2483,-0.4682 2.2070583,2.2070583 0 0 0 0.1293,-0.5144 2.2070583,2.2070583 0 0 0 0,-0.5301 2.2070583,2.2070583 0 0 0 -0.1237,-0.5158 l -8.5214,-22.9427 a 2.2070583,2.2070583 0 0 0 -0.4705,-0.7531 2.2070583,2.2070583 0 0 0 -0.7291,-0.5069 2.2070583,2.2070583 0 0 0 -0.8698,-0.1784 h -31.0967 z m -14.5567,42.7224 c -0.6556,0 -1.1833,0.5277 -1.1833,1.1834 v 10.479 c 0,0.6557 0.5277,1.1833 1.1833,1.1833 h 91.6116 c 0.6557,0 1.1834,-0.5276 1.1834,-1.1833 v -10.479 c 0,-0.6557 -0.5277,-1.1834 -1.1834,-1.1834 z m 4.8005,2.0492 h 7.7097 c 1.3416,0 2.4215,1.0799 2.4215,2.4214 v 3.9045 c 0,1.3415 -1.0799,2.4215 -2.4215,2.4215 h -7.7097 c -1.3416,0 -2.4216,-1.08 -2.4216,-2.4215 v -3.9045 c 0,-1.3415 1.08,-2.4214 2.4216,-2.4214 z m 73.9993,0 h 7.7093 c 1.3416,0 2.4216,1.0799 2.4216,2.4214 v 3.9045 c 0,1.3415 -1.08,2.4215 -2.4216,2.4215 h -7.7093 c -1.3416,0 -2.4219,-1.08 -2.4219,-2.4215 v -3.9045 c 0,-1.3415 1.0803,-2.4214 2.4219,-2.4214 z m -84.1487,16.6244 c -0.7322,0 -1.3215,0.4187 -1.3215,0.9387 v 8.3106 c 0,0.52 0.5893,0.9387 1.3215,0.9387 h 1.4279 v 15.5108 c 0,1.5173 1.2216,2.7389 2.7388,2.7389 h 7.726 c 1.5173,0 2.7391,-1.2216 2.7391,-2.7389 v -7.1555 c 0.2456,0.098 0.5022,0.1654 0.7741,0.1654 h 71.4974 c 0.2719,0 0.5287,-0.067 0.7744,-0.1654 v 7.1555 c 0,1.5173 1.2215,2.7389 2.7388,2.7389 h 7.7263 c 1.5172,0 2.7387,-1.2216 2.7387,-2.7389 v -15.5108 h 1.428 c 0.7321,0 1.3214,-0.4187 1.3214,-0.9387 v -8.3106 c 0,-0.52 -0.5893,-0.9387 -1.3214,-0.9387 z" /><path
           style="font-weight:500;font-size:89.1382px;line-height:1.1;font-family:Roboto;-inkscape-font-specification:'Roboto Medium';letter-spacing:0px;stroke-width:173.812;stroke-linecap:round;stroke-linejoin:round;paint-order:stroke fill markers"
           d="m -3835.4064,2244.4158 -7.1815,7.6168 v 19.7601 h -11.0117 v -63.3717 h 11.0117 v 29.7273 l 6.0934,-7.5298 18.5414,-22.1975 h 13.3185 l -23.5467,28.0733 24.896,35.2984 h -13.0574 z m 64.5033,22.7633 q -4.6571,5.4841 -13.2314,5.4841 -7.6603,0 -11.6211,-4.483 -3.9172,-4.483 -3.9172,-12.9703 v -30.5107 h 10.5765 v 30.3801 q 0,8.9661 7.4427,8.9661 7.7038,0 10.4023,-5.5277 v -33.8185 h 10.5765 v 47.0935 h -9.9671 z m 62.2401,-18.4544 q 0,10.9247 -4.9618,17.4534 -4.9618,6.4851 -13.3185,6.4851 -7.7474,0 -12.4045,-5.0924 v 22.3281 h -10.5764 v -65.1997 h 9.7494 l 0.4353,4.7877 q 4.6571,-5.6582 12.6656,-5.6582 8.6179,0 13.4926,6.4416 4.9183,6.3981 4.9183,17.8016 z m -10.5329,-0.914 q 0,-7.051 -2.8291,-11.1858 -2.7856,-4.1348 -8.0085,-4.1348 -6.4852,0 -9.3143,5.3535 v 20.8918 q 2.8726,5.4841 9.4013,5.4841 5.0488,0 7.8779,-4.0478 2.8727,-4.0913 2.8727,-12.361 z m 48.0075,19.3684 q -4.6571,5.4841 -13.2315,5.4841 -7.6603,0 -11.621,-4.483 -3.9172,-4.483 -3.9172,-12.9703 v -30.5107 h 10.5764 v 30.3801 q 0,8.9661 7.4427,8.9661 7.7039,0 10.4024,-5.5277 v -33.8185 h 10.5765 v 47.0935 h -9.9672 z m 32.034,-42.4799 v 51.2719 q 0,7.225 -3.6125,11.0117 -3.569,3.8301 -10.4894,3.8301 -2.9161,0 -5.6147,-0.7399 v -8.3567 q 1.654,0.3917 3.7431,0.3917 5.2665,0 5.3971,-5.7452 v -51.6636 z m -11.4904,-12.2304 q 0,-2.4374 1.5233,-4.0478 1.5669,-1.6104 4.4395,-1.6104 2.8726,0 4.4395,1.6104 1.5669,1.6104 1.5669,4.0478 0,2.3939 -1.5669,4.0043 -1.5669,1.5669 -4.4395,1.5669 -2.8726,0 -4.4395,-1.5669 -1.5233,-1.6104 -1.5233,-4.0043 z m 43.5245,60.1944 q -10.0542,0 -16.3217,-6.311 -6.224,-6.3546 -6.224,-16.8875 v -1.3058 q 0,-7.051 2.6985,-12.5786 2.742,-5.5711 7.6603,-8.6613 4.9183,-3.0903 10.9682,-3.0903 9.6189,0 14.8419,6.137 5.2664,6.1369 5.2664,17.3662 v 4.2655 h -30.7718 q 0.4788,5.8322 3.8737,9.2271 3.4384,3.395 8.6178,3.395 7.2686,0 11.8387,-5.8758 l 5.7017,5.4405 q -2.8291,4.2219 -7.5733,6.5722 -4.7006,2.3068 -10.5764,2.3068 z m -1.2622,-40.3472 q -4.3525,0 -7.051,3.0467 -2.655,3.0467 -3.3949,8.4873 h 20.1518 v -0.7835 q -0.3482,-5.3099 -2.8291,-8.0085 -2.4809,-2.742 -6.8768,-2.742 z m 38.3015,-7.6168 0.3047,4.9183 q 4.9618,-5.7888 13.5796,-5.7888 9.4449,0 12.9268,7.2251 5.1359,-7.2251 14.4502,-7.2251 7.7908,0 11.5775,4.3089 3.8301,4.309 3.9172,12.7092 v 30.9459 h -10.5765 v -30.6412 q 0,-4.4831 -1.9586,-6.5722 -1.9586,-2.0892 -6.4851,-2.0892 -3.6126,0 -5.9194,1.9586 -2.2632,1.9151 -3.1772,5.0488 l 0.044,32.2952 h -10.5765 v -30.9894 q -0.2176,-8.3132 -8.4873,-8.3132 -6.3545,0 -9.0095,5.1794 v 34.1232 h -10.5765 v -47.0935 z m 126.3082,32.3387 h -24.5479 l -5.1359,14.7548 h -11.4469 l 23.9385,-63.3717 h 9.88 l 23.982,63.3717 h -11.4904 z m -21.4576,-8.879 h 18.3673 l -9.1837,-26.2888 z m 72.3377,19.0202 q -4.6571,5.4841 -13.2314,5.4841 -7.6603,0 -11.6211,-4.483 -3.9172,-4.483 -3.9172,-12.9703 v -30.5107 h 10.5765 v 30.3801 q 0,8.9661 7.4427,8.9661 7.7038,0 10.4023,-5.5277 v -33.8185 h 10.5765 v 47.0935 h -9.9671 z m 34.2538,-53.9268 v 11.4469 h 8.3132 v 7.8344 h -8.3132 v 26.2888 q 0,2.6985 1.0446,3.9172 1.0881,1.1752 3.8301,1.1752 1.8281,0 3.6996,-0.4353 v 8.1827 q -3.6125,1.001 -6.9639,1.001 -12.1869,0 -12.1869,-13.4491 v -26.6805 h -7.7473 v -7.8344 h 7.7473 v -11.4469 z m 13.1009,34.5584 q 0,-6.9204 2.742,-12.448 2.7421,-5.5711 7.7039,-8.5308 4.9618,-3.0032 11.4034,-3.0032 9.5319,0 15.4512,6.137 5.9629,6.1369 6.4416,16.2781 l 0.044,2.4809 q 0,6.964 -2.6986,12.448 -2.655,5.4841 -7.6603,8.4873 -4.9618,3.0032 -11.4905,3.0032 -9.9671,0 -15.9734,-6.6157 -5.9629,-6.6593 -5.9629,-17.7145 z m 10.5765,0.914 q 0,7.2686 3.0031,11.4035 3.0032,4.0913 8.3567,4.0913 5.3536,0 8.3132,-4.1784 3.0032,-4.1783 3.0032,-12.2304 0,-7.138 -3.0902,-11.3164 -3.0467,-4.1783 -8.3132,-4.1783 -5.1794,0 -8.2261,4.1348 -3.0467,4.0913 -3.0467,12.2739 z"
           id="text1"
           aria-label="Kupujem Auto" /></g></g></g></svg>
