<?xml version="1.0" encoding="UTF-8" standalone="no"?>
<!-- Created with Inkscape (http://www.inkscape.org/) -->

<svg
   width="946.52576"
   height="149.86523"
   viewBox="0 0 250.43493 39.651843"
   version="1.1"
   id="svg1"
   inkscape:version="1.3 (0e150ed6c4, 2023-07-21)"
   sodipodi:docname="KupujemAutoLogo.svg"
   xml:space="preserve"
   xmlns:inkscape="http://www.inkscape.org/namespaces/inkscape"
   xmlns:sodipodi="http://sodipodi.sourceforge.net/DTD/sodipodi-0.dtd"
   xmlns="http://www.w3.org/2000/svg"
   xmlns:svg="http://www.w3.org/2000/svg"><sodipodi:namedview
     id="namedview1"
     pagecolor="#ffffff"
     bordercolor="#000000"
     borderopacity="0.25"
     inkscape:showpageshadow="2"
     inkscape:pageopacity="0.0"
     inkscape:pagecheckerboard="0"
     inkscape:deskcolor="#d1d1d1"
     inkscape:document-units="px"
     inkscape:zoom="0.82142637"
     inkscape:cx="390.78365"
     inkscape:cy="255.65286"
     inkscape:window-width="2294"
     inkscape:window-height="890"
     inkscape:window-x="85"
     inkscape:window-y="-6"
     inkscape:window-maximized="1"
     inkscape:current-layer="g13"
     showguides="false" /><defs
     id="defs1" /><g
     inkscape:label="Layer 1"
     inkscape:groupmode="layer"
     id="layer1"
     transform="translate(695.97303,-4308.0766)"><g
       id="g13"
       transform="matrix(0.35076498,0,0,0.35076498,392.46863,3520.2976)"
       style="fill:#2471c8;fill-opacity:1"><path
         id="path12"
         style="fill:#2471c8;fill-opacity:1;stroke-width:10.1512;stroke-linecap:round;stroke-linejoin:round;paint-order:markers fill stroke"
         d="m -3072.4005,2245.888 c -2.5349,0 -4.7699,1.5853 -5.6366,3.9192 l -10.7678,28.9914 c -1.4536,3.9033 1.4531,8.11 5.645,8.11 h 84.4928 c 4.1919,0 7.0988,-4.2067 5.6452,-8.11 l -10.7672,-28.9914 c -0.8667,-2.3339 -3.1017,-3.9185 -5.6366,-3.9192 h -24.0926 -14.7896 z m 0.3146,6.4562 h 23.7651 14.8148 23.7657 l 10.4418,28.1131 h -83.2292 z m -22.483,41.0422 c -2.7801,0 -5.0116,2.2813 -5.0116,5.0019 v 18.3019 c -0.8231,0.1605 -3.4706,1.6782 -3.4706,4.2635 v 10.5026 c 0.015,2.1856 1.4376,3.976 3.4719,3.976 v 16.8099 c 0,3.655 3.0466,6.6905 6.6906,6.6905 h 9.7614 c 3.6503,0 6.6905,-3.042 6.6905,-6.6905 v -5.8051 h 71.0472 v 5.8051 c 0,3.6485 3.0396,6.6905 6.6898,6.6905 h 9.7621 c 3.644,0 6.6899,-3.0355 6.6899,-6.6905 v -16.8099 c 2.0343,0 3.4574,-1.7904 3.4726,-3.976 v -10.5026 c 0,-2.5853 -2.6475,-4.103 -3.4706,-4.2635 v -18.3019 c 0,-2.7206 -2.2322,-5.0019 -5.0122,-5.0019 z m 1.438,6.4431 v 0 h 11.9844 c -0.9324,0.8512 -1.5319,2.5097 -1.5319,4.0765 v 8.4655 c 0,1.811 0.6642,3.2017 1.5632,4.1123 h -12.0181 c 10e-5,-5.5513 0,-11.1029 0,-16.6543 z m 92.4487,0 h 11.9837 v 0 c 0,5.5514 -2e-4,11.103 0,16.6543 h -12.0184 c 0.899,-0.9106 1.5633,-2.3013 1.5633,-4.1123 v -8.4655 c 0,-1.5668 -0.5996,-3.2253 -1.5319,-4.0765 z m -62.414,0 h 44.3662 c -1.3137,1.3586 -1.53,3.0856 -1.53,4.076 v 8.466 c 0,2.3412 1.0827,3.635 1.5149,4.0582 0.015,0.015 0.027,0.033 0.041,0.048 h -44.4193 c 0.015,-0.015 0.027,-0.033 0.041,-0.048 0.4323,-0.4232 1.515,-1.717 1.515,-4.0582 v -8.466 c 0,-0.9904 -0.2163,-2.7174 -1.53,-4.076 z m -33.5035,23.0955 h 111.3725 v 6.4816 c -3.4613,0 -3.4739,3.2025 -3.4739,3.2289 v 19.5982 c 0,0.1808 -0.045,0.2338 -0.2318,0.2338 h -9.7629 c -0.1819,0 -0.2317,-0.051 -0.2317,-0.2338 v -9.0405 c 0,-1.7719 -1.4397,-3.2271 -3.2284,-3.2271 h -77.515 c -1.7887,0 -3.2278,1.4552 -3.2278,3.2271 v 9.0405 c 0,0.1833 -0.05,0.2338 -0.2324,0.2338 h -9.7629 c -0.1875,0 -0.2317,-0.053 -0.2317,-0.2338 v -19.5982 c 0,-0.027 -0.013,-3.2289 -3.474,-3.2289 z"
         sodipodi:nodetypes="cccsscccccccccccccsscsccssssccssssccscssscccssccccccccsscccssscccssccccsssssssssssssscc"
         inkscape:export-filename="finalni logo.svg"
         inkscape:export-xdpi="96"
         inkscape:export-ydpi="96" /><path
         style="font-weight:500;font-size:89.1382px;line-height:1.1;font-family:Roboto;-inkscape-font-specification:'Roboto Medium';letter-spacing:0px;stroke-width:173.812;stroke-linecap:round;stroke-linejoin:round;paint-order:stroke fill markers"
         d="m -2922.7372,2302.8201 -7.1815,7.6168 v 19.7601 h -11.0117 v -63.3717 h 11.0117 v 29.7273 l 6.0934,-7.5298 18.5414,-22.1975 h 13.3185 l -23.5467,28.0733 24.896,35.2984 h -13.0574 z m 64.5033,22.7633 q -4.6571,5.4841 -13.2314,5.4841 -7.6603,0 -11.6211,-4.483 -3.9172,-4.483 -3.9172,-12.9703 v -30.5107 h 10.5765 v 30.3801 q 0,8.9661 7.4427,8.9661 7.7038,0 10.4023,-5.5277 v -33.8185 h 10.5765 v 47.0935 h -9.9671 z m 62.2401,-18.4544 q 0,10.9247 -4.9618,17.4534 -4.9618,6.4851 -13.3185,6.4851 -7.7474,0 -12.4045,-5.0924 v 22.3281 h -10.5765 v -65.1997 h 9.7495 l 0.4353,4.7877 q 4.6571,-5.6582 12.6656,-5.6582 8.6179,0 13.4926,6.4416 4.9183,6.3981 4.9183,17.8016 z m -10.533,-0.914 q 0,-7.051 -2.829,-11.1858 -2.7856,-4.1348 -8.0086,-4.1348 -6.4851,0 -9.3142,5.3535 v 20.8918 q 2.8726,5.4841 9.4013,5.4841 5.0488,0 7.8779,-4.0478 2.8726,-4.0913 2.8726,-12.361 z m 48.0076,19.3684 q -4.6571,5.4841 -13.2315,5.4841 -7.6603,0 -11.621,-4.483 -3.9172,-4.483 -3.9172,-12.9703 v -30.5107 h 10.5764 v 30.3801 q 0,8.9661 7.4427,8.9661 7.7039,0 10.4024,-5.5277 v -33.8185 h 10.5764 v 47.0935 h -9.9671 z m 32.034,-42.4799 v 51.2719 q 0,7.225 -3.6125,11.0117 -3.569,3.8301 -10.4894,3.8301 -2.9162,0 -5.6147,-0.7399 v -8.3567 q 1.654,0.3917 3.7431,0.3917 5.2665,0 5.3971,-5.7452 v -51.6636 z m -11.4904,-12.2304 q 0,-2.4374 1.5233,-4.0478 1.5669,-1.6104 4.4395,-1.6104 2.8726,0 4.4395,1.6104 1.5669,1.6104 1.5669,4.0478 0,2.3939 -1.5669,4.0043 -1.5669,1.5669 -4.4395,1.5669 -2.8726,0 -4.4395,-1.5669 -1.5233,-1.6104 -1.5233,-4.0043 z m 43.5245,60.1944 q -10.0542,0 -16.3217,-6.311 -6.224,-6.3546 -6.224,-16.8876 v -1.3057 q 0,-7.051 2.6985,-12.5786 2.742,-5.5711 7.6603,-8.6613 4.9183,-3.0903 10.9682,-3.0903 9.6189,0 14.8418,6.137 5.2665,6.1369 5.2665,17.3662 v 4.2654 h -30.7718 q 0.4787,5.8323 3.8737,9.2272 3.4384,3.395 8.6178,3.395 7.2686,0 11.8387,-5.8759 l 5.7017,5.4406 q -2.8291,4.2219 -7.5733,6.5722 -4.7006,2.3068 -10.5764,2.3068 z m -1.2622,-40.3472 q -4.3525,0 -7.051,3.0467 -2.655,3.0467 -3.3949,8.4873 h 20.1518 v -0.7835 q -0.3482,-5.3099 -2.8291,-8.0085 -2.4809,-2.742 -6.8768,-2.742 z m 38.3015,-7.6168 0.3047,4.9183 q 4.9618,-5.7888 13.5796,-5.7888 9.4449,0 12.9268,7.2251 5.1359,-7.2251 14.4501,-7.2251 7.7909,0 11.5776,4.3089 3.8301,4.309 3.9172,12.7092 v 30.9459 h -10.5765 v -30.6412 q 0,-4.4831 -1.9586,-6.5722 -1.9586,-2.0892 -6.4851,-2.0892 -3.6126,0 -5.9194,1.9586 -2.2632,1.9151 -3.1773,5.0488 l 0.044,32.2952 h -10.5765 v -30.9894 q -0.2176,-8.3132 -8.4873,-8.3132 -6.3545,0 -9.0095,5.1794 v 34.1232 h -10.5765 v -47.0935 z m 126.3081,32.3387 h -24.5478 l -5.1359,14.7548 h -11.4469 l 23.9385,-63.3717 h 9.88 l 23.982,63.3717 h -11.4904 z m -21.4575,-8.879 h 18.3673 l -9.1837,-26.2888 z m 72.3377,19.0202 q -4.6571,5.4841 -13.2314,5.4841 -7.6604,0 -11.6211,-4.483 -3.9172,-4.483 -3.9172,-12.9703 v -30.5107 h 10.5765 v 30.3801 q 0,8.9661 7.4427,8.9661 7.7038,0 10.4023,-5.5277 v -33.8185 h 10.5765 v 47.0935 h -9.9671 z m 34.2538,-53.9268 v 11.4469 h 8.3132 v 7.8344 h -8.3132 v 26.2888 q 0,2.6985 1.0446,3.9172 1.0881,1.1752 3.8301,1.1752 1.8281,0 3.6996,-0.4353 v 8.1826 q -3.6125,1.0011 -6.9639,1.0011 -12.1869,0 -12.1869,-13.4491 v -26.6805 h -7.7473 v -7.8344 h 7.7473 v -11.4469 z m 13.1009,34.5584 q 0,-6.9204 2.742,-12.448 2.7421,-5.5711 7.7039,-8.5308 4.9618,-3.0032 11.4034,-3.0032 9.5319,0 15.4512,6.137 5.9628,6.1369 6.4416,16.2781 l 0.043,2.4809 q 0,6.964 -2.6985,12.448 -2.655,5.4841 -7.6603,8.4873 -4.9618,3.0032 -11.4905,3.0032 -9.9671,0 -15.9735,-6.6157 -5.9628,-6.6593 -5.9628,-17.7145 z m 10.5764,0.914 q 0,7.2686 3.0032,11.4035 3.0032,4.0913 8.3567,4.0913 5.3536,0 8.3132,-4.1784 3.0032,-4.1783 3.0032,-12.2304 0,-7.138 -3.0902,-11.3164 -3.0467,-4.1783 -8.3132,-4.1783 -5.1794,0 -8.2261,4.1348 -3.0468,4.0913 -3.0468,12.2739 z"
         id="text13"
         aria-label="Kupujem Auto" /></g></g></svg>
