<?xml version="1.0" encoding="UTF-8" standalone="no"?>
<!-- Created with Inkscape (http://www.inkscape.org/) -->

<svg
   width="961.71667"
   height="151.50391"
   viewBox="0 0 254.4542 40.085408"
   version="1.1"
   id="svg1"
   inkscape:version="1.3 (0e150ed6c4, 2023-07-21)"
   sodipodi:docname="KupujemAutoLogoLight.svg"
   xml:space="preserve"
   xmlns:inkscape="http://www.inkscape.org/namespaces/inkscape"
   xmlns:sodipodi="http://sodipodi.sourceforge.net/DTD/sodipodi-0.dtd"
   xmlns="http://www.w3.org/2000/svg"
   xmlns:svg="http://www.w3.org/2000/svg"><sodipodi:namedview
     id="namedview1"
     pagecolor="#ffffff"
     bordercolor="#000000"
     borderopacity="0.25"
     inkscape:showpageshadow="2"
     inkscape:pageopacity="0.0"
     inkscape:pagecheckerboard="0"
     inkscape:deskcolor="#d1d1d1"
     inkscape:document-units="px"
     inkscape:zoom="0.58083616"
     inkscape:cx="468.2904"
     inkscape:cy="74.031204"
     inkscape:window-width="1280"
     inkscape:window-height="730"
     inkscape:window-x="-6"
     inkscape:window-y="953"
     inkscape:window-maximized="1"
     inkscape:current-layer="g14"
     showguides="false" /><defs
     id="defs1" /><g
     inkscape:label="Layer 1"
     inkscape:groupmode="layer"
     id="layer1"
     transform="translate(697.98267,-4374.4033)"><g
       id="g14"
       transform="matrix(0.35460026,0,0,0.35460026,402.36006,3578.0106)"
       style="fill:#7fb0e8;fill-opacity:1"><path
         id="path13"
         style="fill:#7fb0e8;fill-opacity:1;stroke-width:10.1512;stroke-linecap:round;stroke-linejoin:round;paint-order:markers fill stroke"
         d="m -3072.4005,2245.888 c -2.5349,0 -4.7699,1.5853 -5.6366,3.9192 l -10.7678,28.9914 c -1.4536,3.9033 1.4531,8.11 5.645,8.11 h 84.4928 c 4.1919,0 7.0988,-4.2067 5.6452,-8.11 l -10.7672,-28.9914 c -0.8667,-2.3339 -3.1017,-3.9185 -5.6366,-3.9192 h -24.0926 -14.7896 z m 0.3146,6.4562 h 23.7651 14.8148 23.7657 l 10.4418,28.1131 h -83.2292 z m -22.483,41.0422 c -2.7801,0 -5.0116,2.2813 -5.0116,5.0019 v 18.3019 c -0.8231,0.1605 -3.4706,1.6782 -3.4706,4.2635 v 10.5026 c 0.015,2.1856 1.4376,3.976 3.4719,3.976 v 16.8099 c 0,3.655 3.0466,6.6905 6.6906,6.6905 h 9.7614 c 3.6503,0 6.6905,-3.042 6.6905,-6.6905 v -5.8051 h 71.0472 v 5.8051 c 0,3.6485 3.0396,6.6905 6.6898,6.6905 h 9.7621 c 3.644,0 6.6899,-3.0355 6.6899,-6.6905 v -16.8099 c 2.0343,0 3.4574,-1.7904 3.4726,-3.976 v -10.5026 c 0,-2.5853 -2.6475,-4.103 -3.4706,-4.2635 v -18.3019 c 0,-2.7206 -2.2322,-5.0019 -5.0122,-5.0019 z m 1.438,6.4431 v 0 h 11.9844 c -0.9324,0.8512 -1.5319,2.5097 -1.5319,4.0765 v 8.4655 c 0,1.811 0.6642,3.2017 1.5632,4.1123 h -12.0181 c 10e-5,-5.5513 0,-11.1029 0,-16.6543 z m 92.4487,0 h 11.9837 v 0 c 0,5.5514 -2e-4,11.103 0,16.6543 h -12.0184 c 0.899,-0.9106 1.5633,-2.3013 1.5633,-4.1123 v -8.4655 c 0,-1.5668 -0.5996,-3.2253 -1.5319,-4.0765 z m -62.414,0 h 44.3662 c -1.3137,1.3586 -1.53,3.0856 -1.53,4.076 v 8.466 c 0,2.3412 1.0827,3.635 1.5149,4.0582 0.015,0.015 0.027,0.033 0.041,0.048 h -44.4193 c 0.015,-0.015 0.027,-0.033 0.041,-0.048 0.4323,-0.4232 1.515,-1.717 1.515,-4.0582 v -8.466 c 0,-0.9904 -0.2163,-2.7174 -1.53,-4.076 z m -33.5035,23.0955 h 111.3725 v 6.4816 c -3.4613,0 -3.4739,3.2025 -3.4739,3.2289 v 19.5982 c 0,0.1808 -0.045,0.2338 -0.2318,0.2338 h -9.7629 c -0.1819,0 -0.2317,-0.051 -0.2317,-0.2338 v -9.0405 c 0,-1.7719 -1.4397,-3.2271 -3.2284,-3.2271 h -77.515 c -1.7887,0 -3.2278,1.4552 -3.2278,3.2271 v 9.0405 c 0,0.1833 -0.05,0.2338 -0.2324,0.2338 h -9.7629 c -0.1875,0 -0.2317,-0.053 -0.2317,-0.2338 v -19.5982 c 0,-0.027 -0.013,-3.2289 -3.474,-3.2289 z"
         sodipodi:nodetypes="cccsscccccccccccccsscsccssssccssssccscssscccssccccccccsscccssscccssccccsssssssssssssscc"
         inkscape:export-filename="finalni logo.svg"
         inkscape:export-xdpi="96"
         inkscape:export-ydpi="96" /><path
         style="font-weight:bold;font-size:89.1382px;line-height:1.1;font-family:Roboto;-inkscape-font-specification:'Roboto Bold';letter-spacing:0px;stroke-width:173.812;stroke-linecap:round;stroke-linejoin:round;paint-order:stroke fill markers"
         d="m -2921.8667,2304.7787 -6.7898,7.3121 v 18.1062 h -13.0574 v -63.3717 h 13.0574 v 28.7262 l 5.7452,-7.8779 16.1476,-20.8483 h 16.0605 l -22.5021,28.1604 23.155,35.2113 h -15.5382 z m 63.1105,20.6306 q -4.6571,5.6582 -12.8832,5.6582 -7.5733,0 -11.5775,-4.3524 -3.9608,-4.3525 -4.0478,-12.7527 v -30.8589 h 12.5786 v 30.4236 q 0,7.3557 6.7027,7.3557 6.3981,0 8.792,-4.4395 v -33.3398 h 12.6221 v 47.0935 h -11.8387 z m 64.0681,-18.3238 q 0,10.8811 -4.9618,17.4533 -4.9183,6.5287 -13.3185,6.5287 -7.138,0 -11.534,-4.9618 v 22.1975 h -12.5786 v -65.1997 h 11.6646 l 0.4352,4.6136 q 4.5701,-5.4841 11.9258,-5.4841 8.7049,0 13.5361,6.4416 4.8312,6.4417 4.8312,17.758 z m -12.5786,-0.914 q 0,-6.5722 -2.3503,-10.1412 -2.3068,-3.569 -6.7463,-3.569 -5.9193,0 -8.1391,4.5265 v 19.2814 q 2.3068,4.6571 8.2262,4.6571 9.0095,0 9.0095,-14.7548 z m 48.5734,19.2378 q -4.6571,5.6582 -12.8833,5.6582 -7.5732,0 -11.5775,-4.3524 -3.9607,-4.3525 -4.0478,-12.7527 v -30.8589 h 12.5786 v 30.4236 q 0,7.3557 6.7028,7.3557 6.3981,0 8.7919,-4.4395 v -33.3398 h 12.6221 v 47.0935 h -11.8386 z m 34.9937,-42.3058 v 49.6615 q 0,7.7909 -4.1348,12.0998 -4.1349,4.3524 -11.9258,4.3524 -3.2643,0 -6.224,-0.7399 v -9.9671 q 2.2633,0.3917 3.9608,0.3917 5.7017,0 5.7017,-6.0499 v -49.7485 z m -13.6232,-12.1869 q 0,-2.8291 1.8716,-4.6571 1.915,-1.828 5.1794,-1.828 3.2643,0 5.1359,1.828 1.9151,1.828 1.9151,4.6571 0,2.8727 -1.9586,4.7007 -1.9151,1.828 -5.0924,1.828 -3.1773,0 -5.1359,-1.828 -1.9151,-1.828 -1.9151,-4.7007 z m 45.1349,60.1509 q -10.3588,0 -16.8875,-6.3546 -6.4851,-6.3545 -6.4851,-16.931 v -1.2187 q 0,-7.0945 2.742,-12.6656 2.7421,-5.6147 7.7474,-8.6179 5.0488,-3.0467 11.4905,-3.0467 9.6624,0 15.19,6.0934 5.5711,6.0935 5.5711,17.2793 v 5.1359 h -29.9883 q 0.6093,4.6136 3.656,7.3991 3.0903,2.7856 7.7909,2.7856 7.2686,0 11.3599,-5.2665 l 6.1805,6.9204 q -2.8291,4.0043 -7.6603,6.2676 -4.8313,2.2197 -10.7071,2.2197 z m -1.4363,-38.6498 q -3.7431,0 -6.0934,2.5245 -2.3068,2.5244 -2.9597,7.225 h 17.4969 v -1.001 q -0.087,-4.1784 -2.2633,-6.4417 -2.1762,-2.3068 -6.1805,-2.3068 z m 39.7379,-9.3142 0.3917,5.2665 q 5.0053,-6.137 13.5361,-6.137 9.0967,0 12.4916,7.1816 4.9618,-7.1816 14.1454,-7.1816 7.6604,0 11.4035,4.483 3.7431,4.4395 3.7431,13.4056 v 30.0754 h -12.6221 v -30.0319 q 0,-4.0042 -1.5669,-5.8323 -1.5669,-1.8715 -5.5276,-1.8715 -5.6582,0 -7.8344,5.397 l 0.043,32.3387 h -12.5786 v -29.9884 q 0,-4.0913 -1.6104,-5.9193 -1.6104,-1.828 -5.4841,-1.828 -5.3535,0 -7.7474,4.4395 v 33.2962 h -12.5785 v -47.0935 z m 124.1754,34.0362 h -22.8939 l -4.3524,13.0573 h -13.8843 l 23.5902,-63.3717 h 12.0999 l 23.7208,63.3717 h -13.8843 z m -19.3684,-10.5765 h 15.8429 l -7.9649,-23.7208 z m 70.4662,18.8461 q -4.6571,5.6582 -12.8832,5.6582 -7.5733,0 -11.5776,-4.3524 -3.9607,-4.3525 -4.0477,-12.7527 v -30.8589 h 12.5785 v 30.4236 q 0,7.3557 6.7028,7.3557 6.3981,0 8.792,-4.4395 v -33.3398 h 12.6221 v 47.0935 h -11.8387 z m 36.7347,-53.8833 v 11.5775 h 8.052 v 9.2272 h -8.052 v 23.5032 q 0,2.6115 1.0011,3.7431 1.001,1.1317 3.8301,1.1317 2.0892,0 3.6996,-0.3047 v 9.5319 q -3.6996,1.1316 -7.6168,1.1316 -13.2314,0 -13.4926,-13.362 v -25.3748 h -6.8769 v -9.2272 h 6.8769 v -11.5775 z m 11.7951,34.689 q 0,-7.0074 2.6986,-12.4915 2.6985,-5.4841 7.7473,-8.4873 5.0924,-3.0032 11.7952,-3.0032 9.5318,0 15.5382,5.8323 6.0499,5.8323 6.7463,15.8429 l 0.087,3.2208 q 0,10.8376 -6.0499,17.4098 -6.0499,6.5287 -16.2347,6.5287 -10.1847,0 -16.2781,-6.5287 -6.05,-6.5286 -6.05,-17.758 z m 12.5786,0.914 q 0,6.7028 2.5245,10.2718 2.5244,3.5255 7.225,3.5255 4.5701,0 7.138,-3.482 2.568,-3.5254 2.568,-11.2293 0,-6.5722 -2.568,-10.1847 -2.5679,-3.6126 -7.225,-3.6126 -4.6136,0 -7.138,3.6126 -2.5245,3.569 -2.5245,11.0987 z"
         id="text14"
         aria-label="Kupujem Auto" /></g></g></svg>
