<?xml version="1.0" encoding="UTF-8" standalone="no"?>
<!-- Created with Inkscape (http://www.inkscape.org/) -->

<svg
   width="370.59131"
   height="141.45215"
   viewBox="0 0 98.052281 37.425881"
   version="1.1"
   id="svg1"
   inkscape:version="1.3 (0e150ed6c4, 2023-07-21)"
   sodipodi:docname="listingToScoreImg.svg"
   xml:space="preserve"
   xmlns:inkscape="http://www.inkscape.org/namespaces/inkscape"
   xmlns:sodipodi="http://sodipodi.sourceforge.net/DTD/sodipodi-0.dtd"
   xmlns="http://www.w3.org/2000/svg"
   xmlns:svg="http://www.w3.org/2000/svg"><sodipodi:namedview
     id="namedview1"
     pagecolor="#ffffff"
     bordercolor="#000000"
     borderopacity="0.25"
     inkscape:showpageshadow="2"
     inkscape:pageopacity="0.0"
     inkscape:pagecheckerboard="0"
     inkscape:deskcolor="#d1d1d1"
     inkscape:document-units="px"
     inkscape:zoom="1.8101934"
     inkscape:cx="385.59417"
     inkscape:cy="62.424271"
     inkscape:window-width="2294"
     inkscape:window-height="890"
     inkscape:window-x="85"
     inkscape:window-y="-6"
     inkscape:window-maximized="1"
     inkscape:current-layer="g48"
     showguides="false" /><defs
     id="defs1" /><g
     inkscape:label="Layer 1"
     inkscape:groupmode="layer"
     id="layer1"
     transform="translate(1633.7398,-3916.5305)"><g
       id="g57"
       transform="translate(1944.0141,-243.12216)"
       style="fill:#b2b2b2;fill-opacity:1"><path
         id="path17"
         style="fill:#b2b2b2;fill-opacity:1;stroke-width:1.59506;stroke-linecap:round;stroke-linejoin:round;paint-order:markers fill stroke"
         d="m -3563.9883,4167.2209 c -0.3983,0 -0.7495,0.249 -0.8857,0.6158 l -1.692,4.5554 c -0.2283,0.6132 0.2284,1.2743 0.887,1.2743 h 13.2763 c 0.6587,0 1.1154,-0.6611 0.887,-1.2743 l -1.6917,-4.5554 c -0.1362,-0.3668 -0.4875,-0.6157 -0.8858,-0.6158 h -3.7857 -2.3238 z m 0.05,1.0144 h 3.7342 2.3278 3.7342 l 1.6408,4.4174 h -13.0778 z m -3.5328,6.4489 c -0.4368,0 -0.7875,0.3585 -0.7875,0.786 v 2.8757 c -0.1293,0.025 -0.5452,0.2637 -0.5452,0.6699 v 1.6503 c 0,0.3434 0.2258,0.6248 0.5455,0.6248 v 2.6413 c 0,0.5743 0.4787,1.0512 1.0512,1.0512 h 1.5338 c 0.5737,0 1.0513,-0.4779 1.0513,-1.0512 v -0.9122 h 11.1636 v 0.9122 c 0,0.5733 0.4776,1.0512 1.0511,1.0512 h 1.534 c 0.5725,0 1.0511,-0.4769 1.0511,-1.0512 v -2.6413 c 0.3197,0 0.5433,-0.2814 0.5456,-0.6248 v -1.6503 c 0,-0.4062 -0.4159,-0.6446 -0.5452,-0.6699 v -2.8757 c 0,-0.4275 -0.3508,-0.786 -0.7877,-0.786 z m 0.226,1.0124 v 0 h 1.8831 c -0.1465,0.1338 -0.2408,0.3944 -0.2408,0.6406 v 1.3301 c 0,0.2846 0.1044,0.5032 0.2457,0.6462 h -1.8885 c 1e-4,-0.8723 0,-1.7446 0,-2.6169 z m 14.5263,0 h 1.883 v 0 c 0,0.8723 -1e-4,1.7446 0,2.6169 h -1.8883 c 0.1412,-0.143 0.2455,-0.3616 0.2455,-0.6462 v -1.3301 c 0,-0.2462 -0.094,-0.5068 -0.2407,-0.6406 z m -9.807,0 h 6.9712 c -0.2064,0.2135 -0.2404,0.4848 -0.2404,0.6404 v 1.3303 c 0,0.3679 0.1702,0.5712 0.2381,0.6377 0,0 0.01,0.01 0.01,0.01 h -6.9796 c 0,0 0.01,-0.01 0.01,-0.01 0.068,-0.066 0.238,-0.2698 0.238,-0.6377 v -1.3303 c 0,-0.1556 -0.034,-0.4269 -0.2404,-0.6404 z m -5.2643,3.629 h 17.4997 v 1.0185 c -0.5438,0 -0.5457,0.5032 -0.5457,0.5073 v 3.0794 c 0,0.029 -0.01,0.037 -0.037,0.037 h -1.5341 c -0.029,0 -0.037,-0.01 -0.037,-0.037 v -1.4204 c 0,-0.2785 -0.2263,-0.5071 -0.5073,-0.5071 h -12.1799 c -0.281,0 -0.5072,0.2286 -0.5072,0.5071 v 1.4204 c 0,0.029 -0.01,0.037 -0.037,0.037 h -1.534 c -0.03,0 -0.037,-0.01 -0.037,-0.037 v -3.0794 c 0,-0.01 0,-0.5073 -0.5459,-0.5073 z"
         sodipodi:nodetypes="cccsscccccccccccccsscsccssssccssssccscssscccssccccccccsscccssscccssccccsssssssssssssscc"
         inkscape:export-filename="finalni logo.svg"
         inkscape:export-xdpi="96"
         inkscape:export-ydpi="96" /><path
         style="color:#000000;fill:#b2b2b2;fill-opacity:1;stroke-linecap:round;stroke-linejoin:round;-inkscape-stroke:none;paint-order:markers fill stroke"
         d="m -3570.0879,4159.6526 c -4.2878,0 -7.666,3.9775 -7.666,8.7969 v 19.83 c 0,4.8194 3.3782,8.7989 7.666,8.7989 h 22.0938 c 4.2878,0 7.666,-3.9795 7.666,-8.7989 v -19.83 c 0,-4.8194 -3.3782,-8.7969 -7.666,-8.7969 z m 0,1.1894 h 22.0938 c 3.5466,0 6.4765,3.3389 6.4765,7.6075 v 19.83 c 0,4.2686 -2.9299,7.6075 -6.4765,7.6075 h -22.0938 c -3.5466,0 -6.4746,-3.3389 -6.4746,-7.6075 v -19.83 c 0,-4.2686 2.928,-7.6075 6.4746,-7.6075 z"
         id="path18" /><path
         style="font-weight:bold;font-size:5.50333px;line-height:1.1;font-family:Roboto;-inkscape-font-specification:'Roboto Bold';letter-spacing:0px;stroke-width:1.19062;stroke-linecap:round;stroke-linejoin:round;paint-order:markers fill stroke"
         d="m -3565.8271,4192.2041 h -0.7766 v -2.9935 l -0.927,0.2875 v -0.6315 l 1.6203,-0.5804 h 0.083 z m 3.9045,-1.6177 q 0,0.8115 -0.3359,1.2415 -0.3359,0.4299 -0.9835,0.4299 -0.6396,0 -0.9781,-0.4218 -0.3386,-0.4219 -0.3467,-1.2093 v -0.7201 q 0,-0.8196 0.3386,-1.2442 0.3413,-0.4246 0.9808,-0.4246 0.6396,0 0.9782,0.4219 0.3385,0.4192 0.3466,1.2066 z m -0.7766,-0.79 q 0,-0.4864 -0.1344,-0.7067 -0.1316,-0.2231 -0.4138,-0.2231 -0.2741,0 -0.4057,0.2123 -0.129,0.2096 -0.1371,0.6584 v 0.9512 q 0,0.4784 0.129,0.7121 0.1317,0.2311 0.4192,0.2311 0.2848,0 0.4111,-0.223 0.1263,-0.223 0.1317,-0.6825 z m 3.934,0.79 q 0,0.8115 -0.3359,1.2415 -0.3359,0.4299 -0.9835,0.4299 -0.6395,0 -0.9781,-0.4218 -0.3386,-0.4219 -0.3467,-1.2093 v -0.7201 q 0,-0.8196 0.3386,-1.2442 0.3413,-0.4246 0.9808,-0.4246 0.6396,0 0.9782,0.4219 0.3386,0.4192 0.3466,1.2066 z m -0.7766,-0.79 q 0,-0.4864 -0.1343,-0.7067 -0.1317,-0.2231 -0.4139,-0.2231 -0.274,0 -0.4057,0.2123 -0.129,0.2096 -0.1371,0.6584 v 0.9512 q 0,0.4784 0.129,0.7121 0.1317,0.2311 0.4192,0.2311 0.2849,0 0.4112,-0.223 0.1263,-0.223 0.1316,-0.6825 z m 3.9341,0.79 q 0,0.8115 -0.3359,1.2415 -0.3359,0.4299 -0.9836,0.4299 -0.6395,0 -0.9781,-0.4218 -0.3386,-0.4219 -0.3466,-1.2093 v -0.7201 q 0,-0.8196 0.3386,-1.2442 0.3412,-0.4246 0.9808,-0.4246 0.6395,0 0.9781,0.4219 0.3386,0.4192 0.3467,1.2066 z m -0.7766,-0.79 q 0,-0.4864 -0.1344,-0.7067 -0.1317,-0.2231 -0.4138,-0.2231 -0.2741,0 -0.4058,0.2123 -0.129,0.2096 -0.137,0.6584 v 0.9512 q 0,0.4784 0.129,0.7121 0.1316,0.2311 0.4191,0.2311 0.2849,0 0.4112,-0.223 0.1263,-0.223 0.1317,-0.6825 z m 5.8311,1.1071 q -0.046,0.6207 -0.4649,0.9889 -0.4165,0.3654 -1.1098,0.3654 -0.7443,0 -1.1769,-0.4971 -0.4327,-0.4971 -0.4407,-1.3543 v -0.2795 q 0,-0.5724 0.1988,-0.9996 0.1989,-0.43 0.567,-0.6584 0.3708,-0.2311 0.8599,-0.2311 0.6799,0 1.091,0.3655 0.4138,0.3628 0.4783,1.0184 h -0.8061 q -0.03,-0.3789 -0.2123,-0.5535 -0.1801,-0.1774 -0.5509,-0.1774 -0.3762,0 -0.5804,0.2526 -0.2016,0.2526 -0.2338,0.7766 h 1.2012 v 0.6503 h -1.2012 q 0.027,0.5133 0.215,0.7793 0.1908,0.2633 0.5911,0.2633 0.3628,0 0.5509,-0.172 0.1881,-0.1746 0.215,-0.5374 z"
         id="text23"
         aria-label="1000 Є" /><g
         id="g48"
         transform="matrix(0.91745765,0,0,0.91745765,-279.16302,370.41344)"
         style="fill:#b2b2b2;fill-opacity:1"><path
           d="m -3508.8819,4145.9112 v 0.987 6e-4 a 9.2017174,8.9017658 0 0 1 0.4982,0.013 9.2017174,8.9017658 0 0 1 0.4966,0.039 9.2017174,8.9017658 0 0 1 0.494,0.065 9.2017174,8.9017658 0 0 1 0.4894,0.091 9.2017174,8.9017658 0 0 1 0.4837,0.1163 9.2017174,8.9017658 0 0 1 0.4764,0.1416 9.2017174,8.9017658 0 0 1 0.4677,0.1664 9.2017174,8.9017658 0 0 1 0.4579,0.1906 9.2017174,8.9017658 0 0 1 0.4464,0.214 9.2017174,8.9017658 0 0 1 0.4336,0.2372 9.2017174,8.9017658 0 0 1 0.4201,0.2599 9.2017174,8.9017658 0 0 1 0.4047,0.2811 9.2017174,8.9017658 0 0 1 0.3886,0.3023 9.2017174,8.9017658 0 0 1 0.371,0.322 9.2017174,8.9017658 0 0 1 0.3519,0.3405 9.2017174,8.9017658 0 0 1 0.3328,0.3592 9.2017174,8.9017658 0 0 1 0.3127,0.3757 9.2017174,8.9017658 0 0 1 0.2904,0.3917 9.2017174,8.9017658 0 0 1 0.2687,0.4062 9.2017174,8.9017658 0 0 1 0.2449,0.4196 9.2017174,8.9017658 0 0 1 0.2217,0.432 9.2017174,8.9017658 0 0 1 0.1969,0.4428 9.2017174,8.9017658 0 0 1 0.1716,0.4522 9.2017174,8.9017658 0 0 1 0.1462,0.461 9.2017174,8.9017658 0 0 1 0.1204,0.4676 9.2017174,8.9017658 0 0 1 0.094,0.4739 9.2017174,8.9017658 0 0 1 0.067,0.4775 9.2017174,8.9017658 0 0 1 0.04,0.4806 9.2017174,8.9017658 0 0 1 0.014,0.4821 9.2017174,8.9017658 0 0 1 -0.1137,1.3922 9.2017174,8.9017658 0 0 1 -0.3369,1.3586 9.2017174,8.9017658 0 0 1 -0.5524,1.2903 9.2017174,8.9017658 0 0 1 -0.7545,1.1912 9.2017174,8.9017658 0 0 1 -0.9379,1.0619 9.2017174,8.9017658 0 0 1 -1.0981,0.9075 9.2017174,8.9017658 0 0 1 -1.231,0.7296 9.2017174,8.9017658 0 0 1 -1.3337,0.5344 9.2017174,8.9017658 0 0 1 -1.4041,0.3261 9.2017174,8.9017658 0 0 1 -1.4397,0.1095 9.2017174,8.9017658 0 0 1 -1.4392,-0.1095 9.2017174,8.9017658 0 0 1 -1.404,-0.3261 9.2017174,8.9017658 0 0 1 -1.3343,-0.5344 9.2017174,8.9017658 0 0 1 -1.231,-0.7296 9.2017174,8.9017658 0 0 1 -1.0981,-0.9075 9.2017174,8.9017658 0 0 1 -0.9379,-1.0619 9.2017174,8.9017658 0 0 1 -0.7545,-1.1912 9.2017174,8.9017658 0 0 1 -0.5524,-1.2903 9.2017174,8.9017658 0 0 1 -0.3369,-1.3586 9.2017174,8.9017658 0 0 1 -0.1132,-1.3922 9.2017174,8.9017658 0 0 1 0.1132,-1.3926 9.2017174,8.9017658 0 0 1 0.3369,-1.3586 9.2017174,8.9017658 0 0 1 0.5524,-1.2904 9.2017174,8.9017658 0 0 1 0.7545,-1.1911 9.2017174,8.9017658 0 0 1 0.9379,-1.062 9.2017174,8.9017658 0 0 1 1.0981,-0.9074 9.2017174,8.9017658 0 0 1 1.231,-0.7297 9.2017174,8.9017658 0 0 1 1.3343,-0.5343 9.2017174,8.9017658 0 0 1 0.2945,-0.068 l -0.2878,-0.9638 a 10.222184,9.8889685 0 0 0 -0.043,0.01 10.222184,9.8889685 0 0 0 -1.3663,0.4935 10.222184,9.8889685 0 0 0 -1.2801,0.676 10.222184,9.8889685 0 0 0 -1.1679,0.8454 10.222184,9.8889685 0 0 0 -1.0309,0.9978 10.222184,9.8889685 0 0 0 -0.8744,1.1297 10.222184,9.8889685 0 0 0 -0.6986,1.2382 10.222184,9.8889685 0 0 0 -0.5101,1.3218 10.222184,9.8889685 0 0 0 -0.31,1.3788 10.222184,9.8889685 0 0 0 -0.1039,1.4076 10.222184,9.8889685 0 0 0 0.1039,1.4072 10.222184,9.8889685 0 0 0 0.31,1.3787 10.222184,9.8889685 0 0 0 0.5101,1.3219 10.222184,9.8889685 0 0 0 0.6986,1.2382 10.222184,9.8889685 0 0 0 0.8744,1.1296 10.222184,9.8889685 0 0 0 1.0309,0.9979 10.222184,9.8889685 0 0 0 1.1679,0.8454 10.222184,9.8889685 0 0 0 1.2801,0.6765 10.222184,9.8889685 0 0 0 1.3663,0.4929 10.222184,9.8889685 0 0 0 1.4252,0.2998 10.222184,9.8889685 0 0 0 1.4547,0.1007 10.222184,9.8889685 0 0 0 1.4547,-0.1007 10.222184,9.8889685 0 0 0 1.4252,-0.2998 10.222184,9.8889685 0 0 0 1.3664,-0.4929 10.222184,9.8889685 0 0 0 1.2805,-0.6765 10.222184,9.8889685 0 0 0 1.1674,-0.8454 10.222184,9.8889685 0 0 0 1.0314,-0.9979 10.222184,9.8889685 0 0 0 0.8739,-1.1296 10.222184,9.8889685 0 0 0 0.6992,-1.2382 10.222184,9.8889685 0 0 0 0.5095,-1.3219 10.222184,9.8889685 0 0 0 0.31,-1.3787 10.222184,9.8889685 0 0 0 0.1039,-1.4072 10.222184,9.8889685 0 0 0 -0.013,-0.5012 10.222184,9.8889685 0 0 0 -0.039,-0.4992 10.222184,9.8889685 0 0 0 -0.066,-0.4971 10.222184,9.8889685 0 0 0 -0.091,-0.4936 10.222184,9.8889685 0 0 0 -0.1168,-0.4878 10.222184,9.8889685 0 0 0 -0.1426,-0.4816 10.222184,9.8889685 0 0 0 -0.1674,-0.4744 10.222184,9.8889685 0 0 0 -0.1923,-0.4651 10.222184,9.8889685 0 0 0 -0.216,-0.4553 10.222184,9.8889685 0 0 0 -0.2397,-0.4439 10.222184,9.8889685 0 0 0 -0.2631,-0.432 10.222184,9.8889685 0 0 0 -0.2847,-0.418 10.222184,9.8889685 0 0 0 -0.3065,-0.4041 10.222184,9.8889685 0 0 0 -0.3276,-0.3881 10.222184,9.8889685 0 0 0 -0.3472,-0.3721 10.222184,9.8889685 0 0 0 -0.3659,-0.354 10.222184,9.8889685 0 0 0 -0.3845,-0.3359 10.222184,9.8889685 0 0 0 -0.4015,-0.3168 10.222184,9.8889685 0 0 0 -0.4176,-0.2966 10.222184,9.8889685 0 0 0 -0.432,-0.2754 10.222184,9.8889685 0 0 0 -0.4465,-0.2543 10.222184,9.8889685 0 0 0 -0.4588,-0.232 10.222184,9.8889685 0 0 0 -0.4708,-0.2093 10.222184,9.8889685 0 0 0 -0.4811,-0.186 10.222184,9.8889685 0 0 0 -0.4899,-0.1618 10.222184,9.8889685 0 0 0 -0.4982,-0.1379 10.222184,9.8889685 0 0 0 -0.5043,-0.1132 10.222184,9.8889685 0 0 0 -0.5096,-0.088 10.222184,9.8889685 0 0 0 -0.5142,-0.064 10.222184,9.8889685 0 0 0 -0.5162,-0.038 10.222184,9.8889685 0 0 0 -0.5178,-0.013 z"
           style="fill:#b2b2b2;fill-opacity:1;stroke-width:1.19062;stroke-linecap:round;stroke-linejoin:round;paint-order:markers fill stroke"
           id="path28" /><path
           d="m -3510.5865,4156.4334 q -0.4902,0.4815 -1.1452,0.4815 -0.8371,0 -1.3403,-0.5725 -0.5032,-0.577 -0.5032,-1.553 0,-0.6203 0.2689,-1.1364 0.2733,-0.5206 0.7591,-0.8069 0.4859,-0.2906 1.0932,-0.2906 0.6246,0 1.1104,0.3123 0.4858,0.3123 0.7548,0.8979 0.2689,0.5856 0.2733,1.3404 v 0.4641 q 0,1.579 -0.7852,2.4812 -0.7851,0.9023 -2.2252,0.963 l -0.308,0 v -1.0454 l 0.2776,-0 q 1.6353,-0.074 1.7698,-1.5356 z m -0.8372,-0.4771 q 0.3037,0 0.5205,-0.1562 0.2213,-0.1561 0.3341,-0.3773 v -0.5162 q 0,-0.6377 -0.243,-0.989 -0.2429,-0.3514 -0.6506,-0.3514 -0.3774,0 -0.6203,0.347 -0.2429,0.3427 -0.2429,0.8632 0,0.5162 0.2342,0.8502 0.2386,0.3297 0.668,0.3297 z m 6.0468,3.0017 h -1.2536 v -4.8322 l -1.4965,0.4641 v -1.0194 l 2.6157,-0.9369 h 0.1344 z"
           id="text48"
           style="font-weight:bold;font-size:8.88368px;line-height:1.1;font-family:Roboto;-inkscape-font-specification:'Roboto Bold';letter-spacing:0px;stroke-width:1.92194;stroke-linecap:round;stroke-linejoin:round;paint-order:markers fill stroke"
           aria-label="91" /></g><path
         style="color:#000000;fill:#b2b2b2;fill-opacity:1;stroke-linecap:round;stroke-linejoin:round;-inkscape-stroke:none;paint-order:markers fill stroke"
         d="m -3509.4594,4159.6526 c -4.2879,0 -7.6661,3.9775 -7.6661,8.7969 v 19.83 c 0,4.8194 3.3782,8.7989 7.6661,8.7989 h 22.0918 c 4.2878,0 7.666,-3.9795 7.666,-8.7989 v -19.83 c 0,-4.8194 -3.3782,-8.7969 -7.666,-8.7969 z m 0,1.1894 h 22.0918 c 3.5466,0 6.4765,3.3389 6.4765,7.6075 v 19.83 c 0,4.2686 -2.9299,7.6075 -6.4765,7.6075 h -22.0918 c -3.5466,0 -6.4766,-3.3389 -6.4766,-7.6075 v -19.83 c 0,-4.2686 2.93,-7.6075 6.4766,-7.6075 z"
         id="path48" /><path
         style="font-weight:bold;font-size:5.57691px;line-height:1.1;font-family:Roboto;-inkscape-font-specification:'Roboto Bold';letter-spacing:0px;stroke-width:1.20654;stroke-linecap:round;stroke-linejoin:round;paint-order:markers fill stroke"
         d="m -3504.8469,4170.1995 q 0,-0.2314 -0.1634,-0.354 -0.1634,-0.1252 -0.5882,-0.2614 -0.4248,-0.1389 -0.6726,-0.2723 -0.6753,-0.3649 -0.6753,-0.983 0,-0.3214 0.1797,-0.5719 0.1825,-0.2532 0.5201,-0.3948 0.3404,-0.1417 0.7625,-0.1417 0.4248,0 0.757,0.1553 0.3322,0.1525 0.5147,0.4329 0.1852,0.2805 0.1852,0.6372 h -0.817 q 0,-0.2723 -0.1715,-0.422 -0.1716,-0.1525 -0.482,-0.1525 -0.2996,0 -0.4657,0.128 -0.1661,0.1252 -0.1661,0.3322 0,0.1933 0.1934,0.324 0.196,0.1307 0.5745,0.2451 0.6972,0.2097 1.0158,0.5201 0.3186,0.3104 0.3186,0.7734 0,0.5146 -0.3894,0.8087 -0.3894,0.2914 -1.0484,0.2914 -0.4575,0 -0.8333,-0.1661 -0.3758,-0.1688 -0.5746,-0.4602 -0.196,-0.2914 -0.196,-0.6753 h 0.8196 q 0,0.6562 0.7843,0.6562 0.2913,0 0.4547,-0.1171 0.1634,-0.1198 0.1634,-0.3322 z m 4.485,-0.2805 q -0.046,0.64 -0.4739,1.0076 -0.4248,0.3676 -1.1219,0.3676 -0.7625,0 -1.2009,-0.5119 -0.4357,-0.5147 -0.4357,-1.4106 v -0.2424 q 0,-0.5718 0.2015,-1.0075 0.2016,-0.4357 0.5746,-0.6672 0.3758,-0.2342 0.8714,-0.2342 0.6862,0 1.1056,0.3677 0.4193,0.3676 0.4847,1.032 h -0.8169 q -0.03,-0.3839 -0.2152,-0.5555 -0.1824,-0.1743 -0.5582,-0.1743 -0.4085,0 -0.6127,0.2941 -0.2015,0.2914 -0.2069,0.9068 v 0.2996 q 0,0.6426 0.1933,0.9394 0.1961,0.2968 0.6154,0.2968 0.3785,0 0.5637,-0.1715 0.1879,-0.1743 0.2151,-0.5365 z m 3.7932,-0.5718 q 0,0.5855 -0.2069,1.0266 -0.207,0.4411 -0.5937,0.6808 -0.3839,0.2396 -0.8822,0.2396 -0.4929,0 -0.8796,-0.2369 -0.3867,-0.2369 -0.5991,-0.6753 -0.2124,-0.4412 -0.2151,-1.013 v -0.1961 q 0,-0.5855 0.2097,-1.0293 0.2124,-0.4466 0.5963,-0.6835 0.3867,-0.2397 0.8823,-0.2397 0.4956,0 0.8796,0.2397 0.3867,0.2369 0.5963,0.6835 0.2124,0.4438 0.2124,1.0266 z m -0.8278,-0.1797 q 0,-0.6236 -0.2233,-0.9477 -0.2233,-0.324 -0.6372,-0.324 -0.4112,0 -0.6345,0.3213 -0.2233,0.3186 -0.226,0.9368 v 0.1933 q 0,0.6072 0.2233,0.9422 0.2233,0.3349 0.6427,0.3349 0.4111,0 0.6317,-0.3213 0.2206,-0.324 0.2233,-0.9422 z m 2.8892,0.6208 h -0.6508 v 1.4514 h -0.8169 v -3.9648 h 1.4732 q 0.7025,0 1.0838,0.3132 0.3812,0.3131 0.3812,0.885 0,0.4057 -0.177,0.678 -0.1743,0.2696 -0.531,0.4303 l 0.8578,1.6202 v 0.038 h -0.8769 z m -0.6508,-0.6617 h 0.659 q 0.3077,0 0.4765,-0.1552 0.1689,-0.1579 0.1689,-0.433 0,-0.2804 -0.1607,-0.4411 -0.1579,-0.1607 -0.4874,-0.1607 h -0.6563 z m 5.1276,0.3949 h -1.5685 v 1.062 h 1.8408 v 0.6562 h -2.6577 v -3.9648 h 2.6523 v 0.6617 h -1.8354 v 0.9449 h 1.5685 z"
         id="path1"
         aria-label="SCORE" /><g
         id="g56"
         transform="translate(1.27995,22.56466)"
         style="fill:#b2b2b2;fill-opacity:1"><path
           id="path51"
           style="fill:#b2b2b2;fill-opacity:1;stroke-width:0.194504;stroke-linecap:round;stroke-linejoin:round;paint-order:markers fill stroke"
           d="m -3532.7474,4154.8579 h 5.4813 c 0.3353,0 0.6052,0.2699 0.6052,0.6051 0,0.3353 -0.2699,0.6052 -0.6052,0.6052 h -5.4813 c -0.3353,0 -0.6052,-0.2699 -0.6052,-0.6052 0,-0.3352 0.2699,-0.6051 0.6052,-0.6051 z"
           sodipodi:nodetypes="sssssss" /><path
           id="path53"
           style="fill:#b2b2b2;fill-opacity:1;stroke-width:0.194504;stroke-linecap:round;stroke-linejoin:round;paint-order:markers fill stroke"
           transform="rotate(-45)"
           d="m -5436.1415,443.5972 h 3.6308 c 0.3352,0 0.6051,0.26989 0.6051,0.60513 0,0.33524 -0.2699,0.60512 -0.6051,0.60512 h -3.6308 c -0.3352,0 -0.6051,-0.26988 -0.6051,-0.60512 0,-0.33524 0.2699,-0.60513 0.6051,-0.60513 z" /><path
           id="path56"
           style="fill:#b2b2b2;fill-opacity:1;stroke-width:0.194504;stroke-linecap:round;stroke-linejoin:round;paint-order:markers fill stroke"
           transform="matrix(0.70710678,0.70710678,0.70710678,-0.70710678,0,0)"
           d="m 440.57159,-5433.1157 h 3.63076 c 0.33524,0 0.60513,0.2699 0.60513,0.6051 0,0.3352 -0.26989,0.6051 -0.60513,0.6051 h -3.63076 c -0.33524,0 -0.60513,-0.2699 -0.60513,-0.6051 0,-0.3352 0.26989,-0.6051 0.60513,-0.6051 z" /></g></g></g></svg>
