<?xml version="1.0" encoding="UTF-8" standalone="no"?>
<!-- Created with Inkscape (http://www.inkscape.org/) -->

<svg
   width="3068.2207"
   height="920.75195"
   viewBox="0 0 811.80004 243.61562"
   version="1.1"
   id="svg1"
   inkscape:version="1.3 (0e150ed6c4, 2023-07-21)"
   sodipodi:docname="404.svg"
   xml:space="preserve"
   xmlns:inkscape="http://www.inkscape.org/namespaces/inkscape"
   xmlns:sodipodi="http://sodipodi.sourceforge.net/DTD/sodipodi-0.dtd"
   xmlns="http://www.w3.org/2000/svg"
   xmlns:svg="http://www.w3.org/2000/svg"><sodipodi:namedview
     id="namedview1"
     pagecolor="#ffffff"
     bordercolor="#000000"
     borderopacity="0.25"
     inkscape:showpageshadow="2"
     inkscape:pageopacity="0.0"
     inkscape:pagecheckerboard="0"
     inkscape:deskcolor="#d1d1d1"
     inkscape:document-units="px"
     inkscape:zoom="0.056568542"
     inkscape:cx="-15512.155"
     inkscape:cy="21955.666"
     inkscape:window-width="1280"
     inkscape:window-height="730"
     inkscape:window-x="-6"
     inkscape:window-y="953"
     inkscape:window-maximized="1"
     inkscape:current-layer="layer1"
     showguides="false" /><defs
     id="defs1" /><g
     inkscape:label="Layer 1"
     inkscape:groupmode="layer"
     id="layer1"
     transform="translate(4461.5933,-5350.4482)"><g
       id="g124"
       transform="matrix(2.6917353,0,0,2.6917353,2234.7714,-9521.179)"
       style="fill:#c82424;fill-opacity:1"><path
         id="path18"
         style="fill:#c82424;fill-opacity:1;stroke-width:6.7897;stroke-linecap:round;stroke-linejoin:round;paint-order:markers fill stroke"
         d="m -2479.1657,5536.7479 c -1.6377,0.4388 -2.8073,1.8498 -2.9632,3.5078 l -1.9379,20.5942 c -0.2634,2.7735 2.3427,4.9879 5.0509,4.2623 l 54.5879,-14.6268 c 2.7082,-0.7257 3.8581,-3.9465 2.2432,-6.2167 l -11.975,-16.8663 c -0.964,-1.3579 -2.6823,-1.9947 -4.3201,-1.5563 l -15.5654,4.1708 -9.555,2.5602 z m 1.3209,4.1166 15.3537,-4.1141 9.5714,-2.5646 15.3542,-4.1141 11.6128,16.3553 -53.7714,14.408 z m -7.4206,30.4079 c -1.7962,0.4813 -2.8429,2.3413 -2.3719,4.0991 l 3.1683,11.8243 c -0.5041,0.2456 -1.9517,1.6849 -1.5042,3.3553 l 1.8182,6.7853 c 0.388,1.4096 1.617,2.32 2.9314,1.9678 l 2.9099,10.8602 c 0.6328,2.3613 3.1265,3.7952 5.4808,3.1643 l 6.3065,-1.6898 c 2.3583,-0.6319 3.796,-3.1234 3.1643,-5.4807 l -1.0049,-3.7503 45.9011,-12.2992 1.0049,3.7503 c 0.6316,2.3574 3.1219,3.7964 5.4802,3.1645 l 6.307,-1.69 c 2.3542,-0.6308 3.7966,-3.1193 3.1639,-5.4806 l -2.91,-10.8602 c 1.3143,-0.3522 1.9238,-1.7552 1.5552,-3.17 l -1.8181,-6.7854 c -0.4476,-1.6704 -2.4207,-2.1925 -2.9803,-2.1536 l -3.1684,-11.8243 c -0.471,-1.7578 -2.308,-2.8452 -4.104,-2.3639 z m 2.0444,3.9137 v 0 l 7.7427,-2.0747 c -0.4551,0.7114 -0.5551,1.8868 -0.284,2.8989 l 1.4655,5.4693 c 0.3136,1.1701 0.9834,1.9535 1.7218,2.3863 l -7.7645,2.0805 c -0.9609,-3.5866 -1.9221,-7.1733 -2.8831,-10.7599 z m 59.7279,-16.004 7.7422,-2.0746 v 0 c 0.961,3.5866 1.922,7.1734 2.8831,10.7599 l -7.7646,2.0805 c 0.4231,-0.744 0.6116,-1.7574 0.298,-2.9275 l -1.4654,-5.4693 c -0.2712,-1.0121 -0.9457,-1.98 -1.6954,-2.3685 z m -40.3235,10.8046 28.6634,-7.6803 c -0.6135,1.1052 -0.4542,2.2584 -0.2828,2.8983 l 1.4656,5.4695 c 0.4053,1.5127 1.3287,2.161 1.6812,2.3596 0.014,0.015 0.022,0.018 0.034,0.024 l -28.6977,7.6895 c 0.01,-0.02 0.011,-0.027 0.018,-0.038 0.2061,-0.3483 0.6816,-1.3714 0.2762,-2.8842 l -1.4655,-5.4694 c -0.1715,-0.6399 -0.6102,-1.7182 -1.6941,-2.3687 z m -17.6474,20.721 71.9539,-19.2799 1.1221,4.1877 c -2.2362,0.5992 -1.69,2.6704 -1.6854,2.6872 l 3.3927,12.6619 c 0.031,0.116 0.012,0.1587 -0.1093,0.191 l -6.3075,1.6901 c -0.1174,0.032 -0.1588,0.01 -0.1902,-0.1108 l -1.565,-5.8409 c -0.3067,-1.1446 -1.4888,-1.8355 -2.6443,-1.5259 l -50.0798,13.4189 c -1.1556,0.3096 -1.8334,1.4989 -1.5267,2.6435 l 1.565,5.8408 c 0.032,0.118 0.01,0.1596 -0.1096,0.1912 l -6.3075,1.6901 c -0.1213,0.032 -0.1591,0.01 -0.1902,-0.1108 l -3.3927,-12.6619 c 0,-0.018 -0.5686,-2.0832 -2.8034,-1.4844 z"
         sodipodi:nodetypes="cccsscccccccccccccsscsccssssccssssccscssscccssccccccccsscccssscccssccccsssssssssssssscc"
         inkscape:export-filename="finalni logo.svg"
         inkscape:export-xdpi="96"
         inkscape:export-ydpi="96" /><path
         style="font-weight:900;font-size:123.9px;line-height:1.1;font-family:Roboto;-inkscape-font-specification:'Roboto Heavy';text-align:center;letter-spacing:0px;text-anchor:middle;fill:#c82424;fill-opacity:1;stroke-width:196.174;stroke-linecap:round;stroke-linejoin:round;paint-order:markers fill stroke"
         d="m -2338.6152,5579.7934 h 8.9537 v 15.7295 h -8.9537 v 18.6939 h -20.3879 v -18.6939 h -34.0604 l -1.2099,-12.4626 35.2703,-56.7472 v -0.1815 h 20.3879 z m -36.2384,0 h 15.8505 v -27.1031 l -1.2704,2.0569 z m 115.3093,-1.5729 q 0,17.8469 -8.0462,27.5266 -7.9858,9.6797 -22.5658,9.6797 -14.701,0 -22.7473,-9.7402 -8.0462,-9.7402 -8.0462,-27.4661 v -16.0925 q 0,-17.8469 7.9857,-27.5266 8.0463,-9.6797 22.6868,-9.6797 14.6405,0 22.6868,9.7402 8.0462,9.7401 8.0462,27.5266 z m -20.3878,-18.6939 q 0,-9.4982 -2.4804,-14.1566 -2.4805,-4.7188 -7.8648,-4.7188 -5.2633,0 -7.6832,4.3558 -2.3595,4.3559 -2.541,13.1886 v 22.5053 q 0,9.8612 2.4805,14.459 2.4804,4.5374 7.8647,4.5374 5.2028,0 7.6833,-4.4164 2.4804,-4.4768 2.5409,-13.975 z m 84.8182,20.2668 h 8.9537 v 15.7295 h -8.9537 v 18.6939 h -20.3878 v -18.6939 h -34.0604 l -1.21,-12.4626 35.2704,-56.7472 v -0.1815 h 20.3878 z m -36.2383,0 h 15.8505 v -27.1031 l -1.2705,2.0569 z"
         id="text124"
         aria-label="404" /></g></g></svg>
